<?xml version="1.0" encoding="UTF-8"?>
<!DOCTYPE svg PUBLIC "-//W3C//DTD SVG 1.1//EN"
        "http://www.w3.org/Graphics/SVG/1.1/DTD/svg11.dtd">
<svg
  xmlns="http://www.w3.org/2000/svg"
  xmlns:xlink="http://www.w3.org/1999/xlink"
  version="1.1"
  width="1200pt"
  height="900pt"
  viewBox="0 0 1200 900"
  >
  <rect
    x="0"
    y="0"
    width="1200"
    height="900"
    stroke="none"
    fill="#FFFFFF"
    fill-opacity="1.000000"
    />
  <g
    transform="matrix(1 0 0 -1 0 900)"
    >
    <polyline
      stroke-width="2.000000e+00"
      stroke="#0000FF"
      stroke-opacity="1.000000"
      fill="none"
      points="167.99,334.98 177.36,334.98 186.70,334.98 196.08,334.98 205.45,334.98 214.79,334.98 224.16,334.98 233.54,334.98 242.88,334.98 252.25,334.98 
      261.63,334.98 270.97,334.98 280.34,334.98 289.72,334.98 299.06,334.98 308.43,334.98 317.81,334.98 327.15,334.98 336.52,334.98 345.90,334.98 
      355.27,334.98 364.61,334.98 373.99,334.98 383.36,334.98 392.70,334.98 402.08,334.98 411.45,334.98 420.79,334.98 430.16,334.98 439.54,334.98 
      448.88,334.98 458.25,334.98 467.63,334.98 476.97,334.98 486.34,334.98 495.72,334.98 505.06,334.98 514.43,334.98 523.81,334.98 533.15,334.98 
      542.52,334.98 551.90,334.98 561.27,334.98 570.61,334.98 579.99,334.98 589.36,334.98 598.70,334.98 608.08,334.98 617.45,334.98 626.79,334.98 
      636.16,334.98 645.54,334.98 654.88,334.98 664.25,334.98 673.63,334.98 682.97,334.98 692.34,334.98 701.72,334.98 711.06,334.98 720.43,334.98 
      729.81,334.98 739.15,334.98 748.52,334.98 757.90,334.98 767.27,334.98 776.61,334.98 785.99,334.98 795.36,334.98 804.70,334.98 814.08,334.98 
      823.45,334.98 832.79,334.95 842.16,334.98 851.54,335.02 860.88,335.06 870.25,335.09 879.63,335.02 888.97,334.84 898.34,334.65 907.72,334.58 
      917.06,334.84 926.43,335.53 935.81,336.38 945.15,336.67 954.52,335.61 963.90,332.82 973.27,329.42 982.61,328.14 991.99,332.46 1001.36,343.66 
      1010.70,357.51 1020.08,362.82 1029.45,345.68 1038.79,300.52 1048.16,244.23 1057.54,221.82 1066.88,289.94 1076.25,471.88 1085.63,700.73 1094.97,794.99 
      "/>
    <polyline
      stroke-width="1.500000e+00"
      stroke="#FF0000"
      stroke-opacity="1.000000"
      fill="none"
      points="167.99,334.98 177.36,334.98 186.70,334.98 196.08,334.98 205.45,334.98 214.79,334.98 224.16,334.98 233.54,334.98 242.88,334.98 252.25,334.98 
      261.63,334.98 270.97,334.98 280.34,334.98 289.72,334.98 299.06,334.98 308.43,334.98 317.81,334.98 327.15,334.98 336.52,334.98 345.90,334.98 
      355.27,334.98 364.61,334.98 373.99,334.98 383.36,334.98 392.70,334.98 402.08,334.98 411.45,334.98 420.79,334.98 430.16,334.98 439.54,334.98 
      448.88,334.98 458.25,334.98 467.63,334.98 476.97,334.98 486.34,334.98 495.72,334.98 505.06,334.98 514.43,334.98 523.81,334.98 533.15,334.98 
      542.52,334.98 551.90,334.98 561.27,334.98 570.61,334.98 579.99,334.98 589.36,334.98 598.70,334.98 608.08,334.98 617.45,334.98 626.79,334.98 
      636.16,334.98 645.54,334.98 654.88,334.98 664.25,334.98 673.63,334.98 682.97,334.98 692.34,334.98 701.72,334.98 711.06,334.98 720.43,334.98 
      729.81,334.98 739.15,334.98 748.52,334.98 757.90,334.98 767.27,334.98 776.61,334.98 785.99,334.98 795.36,334.98 804.70,334.98 814.08,334.98 
      823.45,334.98 832.79,334.98 842.16,334.98 851.54,334.98 860.88,334.98 870.25,334.98 879.63,334.98 888.97,334.98 898.34,334.98 907.72,334.98 
      917.06,334.98 926.43,334.98 935.81,334.98 945.15,334.98 954.52,335.02 963.90,335.02 973.27,335.06 982.61,335.09 991.99,335.20 1001.36,335.42 
      1010.70,335.86 1020.08,336.70 1029.45,338.46 1038.79,341.98 1048.16,349.01 1057.54,363.18 1066.88,391.64 1076.25,448.84 1085.63,563.84 1094.97,794.99 
      "/>
    <polyline
      stroke-width="2.000000e+00"
      stroke="#0000FF"
      stroke-opacity="1.000000"
      fill="none"
      points="167.99,334.98 177.36,334.98 186.70,334.98 196.08,334.98 205.45,334.98 214.79,334.98 224.16,334.98 233.54,334.98 242.88,334.98 252.25,334.98 
      261.63,334.98 270.97,334.98 280.34,334.98 289.72,334.98 299.06,334.98 308.43,334.98 317.81,334.98 327.15,334.98 336.52,334.98 345.90,334.98 
      355.27,334.98 364.61,334.98 373.99,334.98 383.36,334.98 392.70,334.98 402.08,334.98 411.45,334.98 420.79,334.98 430.16,334.98 439.54,334.98 
      448.88,334.98 458.25,334.98 467.63,334.98 476.97,334.98 486.34,334.98 495.72,334.98 505.06,334.98 514.43,334.98 523.81,334.98 533.15,334.98 
      542.52,334.98 551.90,334.98 561.27,334.98 570.61,334.98 579.99,334.98 589.36,334.98 598.70,334.98 608.08,334.98 617.45,334.98 626.79,334.98 
      636.16,334.98 645.54,334.98 654.88,334.98 664.25,334.98 673.63,334.98 682.97,334.98 692.34,334.98 701.72,334.98 711.06,334.98 720.43,334.98 
      729.81,334.98 739.15,334.98 748.52,334.98 757.90,334.98 767.27,334.98 776.61,334.98 785.99,334.98 795.36,334.98 804.70,334.98 814.08,334.98 
      823.45,334.98 832.79,334.95 842.16,334.98 851.54,335.02 860.88,335.06 870.25,335.09 879.63,335.02 888.97,334.84 898.34,334.65 907.72,334.58 
      917.06,334.84 926.43,335.53 935.81,336.38 945.15,336.67 954.52,335.61 963.90,332.82 973.27,329.42 982.61,328.14 991.99,332.46 1001.36,343.66 
      1010.70,357.51 1020.08,362.82 1029.45,345.68 1038.79,300.52 1048.16,244.23 1057.54,221.82 1066.88,289.94 1076.25,471.88 1085.63,700.73 1094.97,794.99 
      "/>
    <polyline
      stroke-width="1.500000e+00"
      stroke="#FF0000"
      stroke-opacity="1.000000"
      fill="none"
      points="167.99,334.98 177.36,334.98 186.70,334.98 196.08,334.98 205.45,334.98 214.79,334.98 224.16,334.98 233.54,334.98 242.88,334.98 252.25,334.98 
      261.63,334.98 270.97,334.98 280.34,334.98 289.72,334.98 299.06,334.98 308.43,334.98 317.81,334.98 327.15,334.98 336.52,334.98 345.90,334.98 
      355.27,334.98 364.61,334.98 373.99,334.98 383.36,334.98 392.70,334.98 402.08,334.98 411.45,334.98 420.79,334.98 430.16,334.98 439.54,334.98 
      448.88,334.98 458.25,334.98 467.63,334.98 476.97,334.98 486.34,334.98 495.72,334.98 505.06,334.98 514.43,334.98 523.81,334.98 533.15,334.98 
      542.52,334.98 551.90,334.98 561.27,334.98 570.61,334.98 579.99,334.98 589.36,334.98 598.70,334.98 608.08,334.98 617.45,334.98 626.79,334.98 
      636.16,334.98 645.54,334.98 654.88,334.98 664.25,334.98 673.63,334.98 682.97,334.98 692.34,334.98 701.72,334.98 711.06,334.98 720.43,334.98 
      729.81,334.98 739.15,334.98 748.52,334.98 757.90,334.98 767.27,334.98 776.61,334.98 785.99,334.98 795.36,334.98 804.70,334.98 814.08,334.98 
      823.45,334.98 832.79,334.98 842.16,334.98 851.54,334.98 860.88,334.98 870.25,334.98 879.63,334.98 888.97,334.98 898.34,334.98 907.72,334.98 
      917.06,334.98 926.43,334.98 935.81,334.98 945.15,334.98 954.52,335.02 963.90,335.02 973.27,335.06 982.61,335.09 991.99,335.20 1001.36,335.42 
      1010.70,335.86 1020.08,336.70 1029.45,338.46 1038.79,341.98 1048.16,349.01 1057.54,363.18 1066.88,391.64 1076.25,448.84 1085.63,563.84 1094.97,794.99 
      "/>
    <polyline
      stroke-width="5.000000e-01"
      stroke="#000000"
      stroke-opacity="1.000000"
      fill="none"
      points="167.99,105.00 1095.00,105.00"
      />
    <polyline
      stroke-width="5.000000e-01"
      stroke="#000000"
      stroke-opacity="1.000000"
      fill="none"
      points="167.99,105.00 167.99,120.74"
      />
    <polyline
      stroke-width="5.000000e-01"
      stroke="#000000"
      stroke-opacity="1.000000"
      fill="none"
      points="214.35,105.00 214.35,112.87"
      />
    <polyline
      stroke-width="5.000000e-01"
      stroke="#000000"
      stroke-opacity="1.000000"
      fill="none"
      points="260.68,105.00 260.68,112.87"
      />
    <polyline
      stroke-width="5.000000e-01"
      stroke="#000000"
      stroke-opacity="1.000000"
      fill="none"
      points="307.04,105.00 307.04,112.87"
      />
    <polyline
      stroke-width="5.000000e-01"
      stroke="#000000"
      stroke-opacity="1.000000"
      fill="none"
      points="353.37,105.00 353.37,120.74"
      />
    <polyline
      stroke-width="5.000000e-01"
      stroke="#000000"
      stroke-opacity="1.000000"
      fill="none"
      points="399.73,105.00 399.73,112.87"
      />
    <polyline
      stroke-width="5.000000e-01"
      stroke="#000000"
      stroke-opacity="1.000000"
      fill="none"
      points="446.10,105.00 446.10,112.87"
      />
    <polyline
      stroke-width="5.000000e-01"
      stroke="#000000"
      stroke-opacity="1.000000"
      fill="none"
      points="492.42,105.00 492.42,112.87"
      />
    <polyline
      stroke-width="5.000000e-01"
      stroke="#000000"
      stroke-opacity="1.000000"
      fill="none"
      points="538.79,105.00 538.79,120.74"
      />
    <polyline
      stroke-width="5.000000e-01"
      stroke="#000000"
      stroke-opacity="1.000000"
      fill="none"
      points="585.15,105.00 585.15,112.87"
      />
    <polyline
      stroke-width="5.000000e-01"
      stroke="#000000"
      stroke-opacity="1.000000"
      fill="none"
      points="631.48,105.00 631.48,112.87"
      />
    <polyline
      stroke-width="5.000000e-01"
      stroke="#000000"
      stroke-opacity="1.000000"
      fill="none"
      points="677.84,105.00 677.84,112.87"
      />
    <polyline
      stroke-width="5.000000e-01"
      stroke="#000000"
      stroke-opacity="1.000000"
      fill="none"
      points="724.17,105.00 724.17,120.74"
      />
    <polyline
      stroke-width="5.000000e-01"
      stroke="#000000"
      stroke-opacity="1.000000"
      fill="none"
      points="770.53,105.00 770.53,112.87"
      />
    <polyline
      stroke-width="5.000000e-01"
      stroke="#000000"
      stroke-opacity="1.000000"
      fill="none"
      points="816.90,105.00 816.90,112.87"
      />
    <polyline
      stroke-width="5.000000e-01"
      stroke="#000000"
      stroke-opacity="1.000000"
      fill="none"
      points="863.22,105.00 863.22,112.87"
      />
    <polyline
      stroke-width="5.000000e-01"
      stroke="#000000"
      stroke-opacity="1.000000"
      fill="none"
      points="909.59,105.00 909.59,120.74"
      />
    <polyline
      stroke-width="5.000000e-01"
      stroke="#000000"
      stroke-opacity="1.000000"
      fill="none"
      points="955.95,105.00 955.95,112.87"
      />
    <polyline
      stroke-width="5.000000e-01"
      stroke="#000000"
      stroke-opacity="1.000000"
      fill="none"
      points="1002.28,105.00 1002.28,112.87"
      />
    <polyline
      stroke-width="5.000000e-01"
      stroke="#000000"
      stroke-opacity="1.000000"
      fill="none"
      points="1048.64,105.00 1048.64,112.87"
      />
    <polyline
      stroke-width="5.000000e-01"
      stroke="#000000"
      stroke-opacity="1.000000"
      fill="none"
      points="1094.97,105.00 1094.97,120.74"
      />
    <polyline
      stroke-width="5.000000e-01"
      stroke="#000000"
      stroke-opacity="1.000000"
      fill="none"
      points="1095.00,105.00 1095.00,794.99"
      />
    <polyline
      stroke-width="5.000000e-01"
      stroke="#000000"
      stroke-opacity="1.000000"
      fill="none"
      points="1079.26,105.00 1095.00,105.00"
      />
    <polyline
      stroke-width="5.000000e-01"
      stroke="#000000"
      stroke-opacity="1.000000"
      fill="none"
      points="1087.13,150.99 1095.00,150.99"
      />
    <polyline
      stroke-width="5.000000e-01"
      stroke="#000000"
      stroke-opacity="1.000000"
      fill="none"
      points="1087.13,196.99 1095.00,196.99"
      />
    <polyline
      stroke-width="5.000000e-01"
      stroke="#000000"
      stroke-opacity="1.000000"
      fill="none"
      points="1087.13,242.99 1095.00,242.99"
      />
    <polyline
      stroke-width="5.000000e-01"
      stroke="#000000"
      stroke-opacity="1.000000"
      fill="none"
      points="1087.13,288.99 1095.00,288.99"
      />
    <polyline
      stroke-width="5.000000e-01"
      stroke="#000000"
      stroke-opacity="1.000000"
      fill="none"
      points="1079.26,334.98 1095.00,334.98"
      />
    <polyline
      stroke-width="5.000000e-01"
      stroke="#000000"
      stroke-opacity="1.000000"
      fill="none"
      points="1087.13,380.98 1095.00,380.98"
      />
    <polyline
      stroke-width="5.000000e-01"
      stroke="#000000"
      stroke-opacity="1.000000"
      fill="none"
      points="1087.13,426.98 1095.00,426.98"
      />
    <polyline
      stroke-width="5.000000e-01"
      stroke="#000000"
      stroke-opacity="1.000000"
      fill="none"
      points="1087.13,472.98 1095.00,472.98"
      />
    <polyline
      stroke-width="5.000000e-01"
      stroke="#000000"
      stroke-opacity="1.000000"
      fill="none"
      points="1087.13,518.97 1095.00,518.97"
      />
    <polyline
      stroke-width="5.000000e-01"
      stroke="#000000"
      stroke-opacity="1.000000"
      fill="none"
      points="1079.26,564.97 1095.00,564.97"
      />
    <polyline
      stroke-width="5.000000e-01"
      stroke="#000000"
      stroke-opacity="1.000000"
      fill="none"
      points="1087.13,610.97 1095.00,610.97"
      />
    <polyline
      stroke-width="5.000000e-01"
      stroke="#000000"
      stroke-opacity="1.000000"
      fill="none"
      points="1087.13,656.97 1095.00,656.97"
      />
    <polyline
      stroke-width="5.000000e-01"
      stroke="#000000"
      stroke-opacity="1.000000"
      fill="none"
      points="1087.13,702.96 1095.00,702.96"
      />
    <polyline
      stroke-width="5.000000e-01"
      stroke="#000000"
      stroke-opacity="1.000000"
      fill="none"
      points="1087.13,749.00 1095.00,749.00"
      />
    <polyline
      stroke-width="5.000000e-01"
      stroke="#000000"
      stroke-opacity="1.000000"
      fill="none"
      points="1079.26,794.99 1095.00,794.99"
      />
    <polyline
      stroke-width="5.000000e-01"
      stroke="#000000"
      stroke-opacity="1.000000"
      fill="none"
      points="1095.00,794.99 167.99,794.99"
      />
    <polyline
      stroke-width="5.000000e-01"
      stroke="#000000"
      stroke-opacity="1.000000"
      fill="none"
      points="1094.97,779.25 1094.97,794.99"
      />
    <polyline
      stroke-width="5.000000e-01"
      stroke="#000000"
      stroke-opacity="1.000000"
      fill="none"
      points="1048.64,787.12 1048.64,794.99"
      />
    <polyline
      stroke-width="5.000000e-01"
      stroke="#000000"
      stroke-opacity="1.000000"
      fill="none"
      points="1002.28,787.12 1002.28,794.99"
      />
    <polyline
      stroke-width="5.000000e-01"
      stroke="#000000"
      stroke-opacity="1.000000"
      fill="none"
      points="955.95,787.12 955.95,794.99"
      />
    <polyline
      stroke-width="5.000000e-01"
      stroke="#000000"
      stroke-opacity="1.000000"
      fill="none"
      points="909.59,779.25 909.59,794.99"
      />
    <polyline
      stroke-width="5.000000e-01"
      stroke="#000000"
      stroke-opacity="1.000000"
      fill="none"
      points="863.22,787.12 863.22,794.99"
      />
    <polyline
      stroke-width="5.000000e-01"
      stroke="#000000"
      stroke-opacity="1.000000"
      fill="none"
      points="816.90,787.12 816.90,794.99"
      />
    <polyline
      stroke-width="5.000000e-01"
      stroke="#000000"
      stroke-opacity="1.000000"
      fill="none"
      points="770.53,787.12 770.53,794.99"
      />
    <polyline
      stroke-width="5.000000e-01"
      stroke="#000000"
      stroke-opacity="1.000000"
      fill="none"
      points="724.17,779.25 724.17,794.99"
      />
    <polyline
      stroke-width="5.000000e-01"
      stroke="#000000"
      stroke-opacity="1.000000"
      fill="none"
      points="677.84,787.12 677.84,794.99"
      />
    <polyline
      stroke-width="5.000000e-01"
      stroke="#000000"
      stroke-opacity="1.000000"
      fill="none"
      points="631.48,787.12 631.48,794.99"
      />
    <polyline
      stroke-width="5.000000e-01"
      stroke="#000000"
      stroke-opacity="1.000000"
      fill="none"
      points="585.15,787.12 585.15,794.99"
      />
    <polyline
      stroke-width="5.000000e-01"
      stroke="#000000"
      stroke-opacity="1.000000"
      fill="none"
      points="538.79,779.25 538.79,794.99"
      />
    <polyline
      stroke-width="5.000000e-01"
      stroke="#000000"
      stroke-opacity="1.000000"
      fill="none"
      points="492.42,787.12 492.42,794.99"
      />
    <polyline
      stroke-width="5.000000e-01"
      stroke="#000000"
      stroke-opacity="1.000000"
      fill="none"
      points="446.10,787.12 446.10,794.99"
      />
    <polyline
      stroke-width="5.000000e-01"
      stroke="#000000"
      stroke-opacity="1.000000"
      fill="none"
      points="399.73,787.12 399.73,794.99"
      />
    <polyline
      stroke-width="5.000000e-01"
      stroke="#000000"
      stroke-opacity="1.000000"
      fill="none"
      points="353.37,779.25 353.37,794.99"
      />
    <polyline
      stroke-width="5.000000e-01"
      stroke="#000000"
      stroke-opacity="1.000000"
      fill="none"
      points="307.04,787.12 307.04,794.99"
      />
    <polyline
      stroke-width="5.000000e-01"
      stroke="#000000"
      stroke-opacity="1.000000"
      fill="none"
      points="260.68,787.12 260.68,794.99"
      />
    <polyline
      stroke-width="5.000000e-01"
      stroke="#000000"
      stroke-opacity="1.000000"
      fill="none"
      points="214.35,787.12 214.35,794.99"
      />
    <polyline
      stroke-width="5.000000e-01"
      stroke="#000000"
      stroke-opacity="1.000000"
      fill="none"
      points="167.99,779.25 167.99,794.99"
      />
    <polyline
      stroke-width="5.000000e-01"
      stroke="#000000"
      stroke-opacity="1.000000"
      fill="none"
      points="167.99,794.99 167.99,105.00"
      />
    <polyline
      stroke-width="5.000000e-01"
      stroke="#000000"
      stroke-opacity="1.000000"
      fill="none"
      points="167.99,794.99 183.73,794.99"
      />
    <polyline
      stroke-width="5.000000e-01"
      stroke="#000000"
      stroke-opacity="1.000000"
      fill="none"
      points="167.99,749.00 175.86,749.00"
      />
    <polyline
      stroke-width="5.000000e-01"
      stroke="#000000"
      stroke-opacity="1.000000"
      fill="none"
      points="167.99,702.96 175.86,702.96"
      />
    <polyline
      stroke-width="5.000000e-01"
      stroke="#000000"
      stroke-opacity="1.000000"
      fill="none"
      points="167.99,656.97 175.86,656.97"
      />
    <polyline
      stroke-width="5.000000e-01"
      stroke="#000000"
      stroke-opacity="1.000000"
      fill="none"
      points="167.99,610.97 175.86,610.97"
      />
    <polyline
      stroke-width="5.000000e-01"
      stroke="#000000"
      stroke-opacity="1.000000"
      fill="none"
      points="167.99,564.97 183.73,564.97"
      />
    <polyline
      stroke-width="5.000000e-01"
      stroke="#000000"
      stroke-opacity="1.000000"
      fill="none"
      points="167.99,518.97 175.86,518.97"
      />
    <polyline
      stroke-width="5.000000e-01"
      stroke="#000000"
      stroke-opacity="1.000000"
      fill="none"
      points="167.99,472.98 175.86,472.98"
      />
    <polyline
      stroke-width="5.000000e-01"
      stroke="#000000"
      stroke-opacity="1.000000"
      fill="none"
      points="167.99,426.98 175.86,426.98"
      />
    <polyline
      stroke-width="5.000000e-01"
      stroke="#000000"
      stroke-opacity="1.000000"
      fill="none"
      points="167.99,380.98 175.86,380.98"
      />
    <polyline
      stroke-width="5.000000e-01"
      stroke="#000000"
      stroke-opacity="1.000000"
      fill="none"
      points="167.99,334.98 183.73,334.98"
      />
    <polyline
      stroke-width="5.000000e-01"
      stroke="#000000"
      stroke-opacity="1.000000"
      fill="none"
      points="167.99,288.99 175.86,288.99"
      />
    <polyline
      stroke-width="5.000000e-01"
      stroke="#000000"
      stroke-opacity="1.000000"
      fill="none"
      points="167.99,242.99 175.86,242.99"
      />
    <polyline
      stroke-width="5.000000e-01"
      stroke="#000000"
      stroke-opacity="1.000000"
      fill="none"
      points="167.99,196.99 175.86,196.99"
      />
    <polyline
      stroke-width="5.000000e-01"
      stroke="#000000"
      stroke-opacity="1.000000"
      fill="none"
      points="167.99,150.99 175.86,150.99"
      />
    <polyline
      stroke-width="5.000000e-01"
      stroke="#000000"
      stroke-opacity="1.000000"
      fill="none"
      points="167.99,105.00 183.73,105.00"
      />
    <clipPath
      id="text-clipping0"
      >
      <polygon
        points="0.000000,0.000000 0.000000,899.990844 1200.000000,899.990844 1200.000000,0.000000"
        />
    </clipPath>
    <g
      clip-path="url(#text-clipping0)"
      >
      <text
        dominant-baseline="no-change"
        fill="#000000"
        fill-opacity="1.000000"
        xml:space="preserve"
        font-size="28"
        transform="matrix(1.000000 0.000000 0.000000 -1.000000 168.022706 73.500778)"
        text-anchor="middle"
        x="0.000000"
        y="10.419307"
><tspan font-family="sans-serif" font-style="normal" font-weight="normal">&#x30;&#x2e;&#x30;</tspan></text>
    </g>
    <g
      clip-path="url(#text-clipping0)"
      >
      <text
        dominant-baseline="no-change"
        fill="#000000"
        fill-opacity="1.000000"
        xml:space="preserve"
        font-size="28"
        transform="matrix(1.000000 0.000000 0.000000 -1.000000 353.404340 73.500778)"
        text-anchor="middle"
        x="0.000000"
        y="10.419307"
><tspan font-family="sans-serif" font-style="normal" font-weight="normal">&#x30;&#x2e;&#x32;</tspan></text>
    </g>
    <g
      clip-path="url(#text-clipping0)"
      >
      <text
        dominant-baseline="no-change"
        fill="#000000"
        fill-opacity="1.000000"
        xml:space="preserve"
        font-size="28"
        transform="matrix(1.000000 0.000000 0.000000 -1.000000 538.785974 73.500778)"
        text-anchor="middle"
        x="0.000000"
        y="10.419307"
><tspan font-family="sans-serif" font-style="normal" font-weight="normal">&#x30;&#x2e;&#x34;</tspan></text>
    </g>
    <g
      clip-path="url(#text-clipping0)"
      >
      <text
        dominant-baseline="no-change"
        fill="#000000"
        fill-opacity="1.000000"
        xml:space="preserve"
        font-size="28"
        transform="matrix(1.000000 0.000000 0.000000 -1.000000 724.204230 73.500778)"
        text-anchor="middle"
        x="0.000000"
        y="10.419307"
><tspan font-family="sans-serif" font-style="normal" font-weight="normal">&#x30;&#x2e;&#x36;</tspan></text>
    </g>
    <g
      clip-path="url(#text-clipping0)"
      >
      <text
        dominant-baseline="no-change"
        fill="#000000"
        fill-opacity="1.000000"
        xml:space="preserve"
        font-size="28"
        transform="matrix(1.000000 0.000000 0.000000 -1.000000 909.585864 73.500778)"
        text-anchor="middle"
        x="0.000000"
        y="10.419307"
><tspan font-family="sans-serif" font-style="normal" font-weight="normal">&#x30;&#x2e;&#x38;</tspan></text>
    </g>
    <g
      clip-path="url(#text-clipping0)"
      >
      <text
        dominant-baseline="no-change"
        fill="#000000"
        fill-opacity="1.000000"
        xml:space="preserve"
        font-size="28"
        transform="matrix(1.000000 0.000000 0.000000 -1.000000 1095.004120 73.500778)"
        text-anchor="middle"
        x="0.000000"
        y="10.419307"
><tspan font-family="sans-serif" font-style="normal" font-weight="normal">&#x31;&#x2e;&#x30;</tspan></text>
    </g>
    <g
      clip-path="url(#text-clipping0)"
      >
      <text
        dominant-baseline="no-change"
        fill="#000000"
        fill-opacity="1.000000"
        xml:space="preserve"
        font-size="28"
        transform="matrix(1.000000 0.000000 0.000000 -1.000000 157.512131 104.995880)"
        text-anchor="end"
        x="0.000000"
        y="10.419307"
><tspan font-family="sans-serif" font-style="normal" font-weight="normal">&#x2d;&#x30;&#x2e;&#x35;</tspan></text>
    </g>
    <g
      clip-path="url(#text-clipping0)"
      >
      <text
        dominant-baseline="no-change"
        fill="#000000"
        fill-opacity="1.000000"
        xml:space="preserve"
        font-size="28"
        transform="matrix(1.000000 0.000000 0.000000 -1.000000 157.512131 334.983367)"
        text-anchor="end"
        x="0.000000"
        y="10.419307"
><tspan font-family="sans-serif" font-style="normal" font-weight="normal">&#x30;&#x2e;&#x30;</tspan></text>
    </g>
    <g
      clip-path="url(#text-clipping0)"
      >
      <text
        dominant-baseline="no-change"
        fill="#000000"
        fill-opacity="1.000000"
        xml:space="preserve"
        font-size="28"
        transform="matrix(1.000000 0.000000 0.000000 -1.000000 157.512131 565.007477)"
        text-anchor="end"
        x="0.000000"
        y="10.419307"
><tspan font-family="sans-serif" font-style="normal" font-weight="normal">&#x30;&#x2e;&#x35;</tspan></text>
    </g>
    <g
      clip-path="url(#text-clipping0)"
      >
      <text
        dominant-baseline="no-change"
        fill="#000000"
        fill-opacity="1.000000"
        xml:space="preserve"
        font-size="28"
        transform="matrix(1.000000 0.000000 0.000000 -1.000000 157.512131 794.994964)"
        text-anchor="end"
        x="0.000000"
        y="10.419307"
><tspan font-family="sans-serif" font-style="normal" font-weight="normal">&#x31;&#x2e;&#x30;</tspan></text>
    </g>
    <g
      clip-path="url(#text-clipping0)"
      >
      <text
        dominant-baseline="no-change"
        fill="#000000"
        fill-opacity="1.000000"
        xml:space="preserve"
        font-size="28"
        transform="matrix(1.000000 0.000000 0.000000 -1.000000 631.513413 37.794122)"
        text-anchor="middle"
        x="0.000000"
        y="10.419307"
><tspan font-family="sans-serif" font-style="normal" font-weight="normal">&#x78;&#x20;&#x5b;&#x6d;&#x5d;</tspan></text>
    </g>
    <g
      clip-path="url(#text-clipping0)"
      >
      <text
        dominant-baseline="no-change"
        fill="#000000"
        fill-opacity="1.000000"
        xml:space="preserve"
        font-size="28"
        transform="matrix(0.000000 1.000000 1.000000 -0.000000 62.990204 450.013733)"
        text-anchor="middle"
        x="0.000000"
        y="10.419307"
><tspan font-family="sans-serif" font-style="normal" font-weight="normal">&#x54;&#x20;&#x5b;&#x4b;&#x5d;</tspan></text>
    </g>
  </g>
</svg>
