<?xml version="1.0" encoding="UTF-8"?>
<!DOCTYPE svg PUBLIC "-//W3C//DTD SVG 1.1//EN"
        "http://www.w3.org/Graphics/SVG/1.1/DTD/svg11.dtd">
<svg
  xmlns="http://www.w3.org/2000/svg"
  xmlns:xlink="http://www.w3.org/1999/xlink"
  version="1.1"
  width="800pt"
  height="600pt"
  viewBox="0 0 800 600"
  >
  <rect
    x="0"
    y="0"
    width="800"
    height="600"
    stroke="none"
    fill="#FFFFFF"
    fill-opacity="1.000000"
    />
  <g
    transform="matrix(1 0 0 -1 0 600)"
    >
    <polyline
      stroke-width="3.000000e+00"
      stroke="#FF0000"
      stroke-opacity="1.000000"
      fill="none"
      points="111.99,530.00 118.17,517.62 124.34,505.56 130.52,493.77 136.70,482.29 142.90,471.11 149.08,460.19 155.25,449.53 161.43,439.15 167.61,429.02 
      173.78,419.13 179.96,409.51 186.14,400.11 192.34,390.93 198.52,381.99 204.69,373.28 210.87,364.78 217.05,356.48 223.22,348.40 229.40,340.51 
      235.58,332.80 241.78,325.30 247.96,317.98 254.13,310.85 260.31,303.89 266.49,297.10 272.66,290.46 278.84,284.02 285.02,277.72 291.22,271.57 
      297.40,265.58 303.57,259.72 309.75,254.04 315.93,248.47 322.10,243.05 328.28,237.75 334.46,232.60 340.66,227.57 346.84,222.66 353.01,217.88 
      359.19,213.21 365.37,208.67 371.54,204.23 377.72,199.88 383.90,195.66 390.10,191.56 396.28,187.53 402.45,183.62 408.63,179.79 414.81,176.08 
      420.98,172.44 427.16,168.90 433.34,165.43 439.54,162.07 445.72,158.77 451.89,155.57 458.07,152.45 464.25,149.39 470.42,146.42 476.60,143.51 
      482.78,140.68 488.98,137.92 495.16,135.23 501.33,132.60 507.51,130.03 513.69,127.54 519.86,125.10 526.04,122.73 532.22,120.41 538.42,118.14 
      544.60,115.95 550.77,113.80 556.95,111.70 563.13,109.65 569.30,107.64 575.48,105.72 581.66,103.81 587.86,101.96 594.04,100.15 600.21,98.39 
      606.39,96.68 612.57,95.00 618.74,93.36 624.92,91.78 631.10,90.24 637.30,88.72 643.48,87.23 649.65,85.79 655.83,84.38 662.01,83.01 
      668.18,81.67 674.36,80.37 680.54,79.10 686.74,77.86 692.92,76.66 699.09,75.47 705.27,74.32 711.45,73.20 717.62,72.10 723.80,71.05 
      729.98,70.00 "/>
    <polyline
      stroke-width="5.000000e-01"
      stroke="#000000"
      stroke-opacity="1.000000"
      fill="none"
      points="111.99,70.00 730.00,70.00"
      />
    <polyline
      stroke-width="5.000000e-01"
      stroke="#000000"
      stroke-opacity="1.000000"
      fill="none"
      points="111.99,70.00 111.99,80.50"
      />
    <polyline
      stroke-width="5.000000e-01"
      stroke="#000000"
      stroke-opacity="1.000000"
      fill="none"
      points="136.70,70.00 136.70,75.25"
      />
    <polyline
      stroke-width="5.000000e-01"
      stroke="#000000"
      stroke-opacity="1.000000"
      fill="none"
      points="161.43,70.00 161.43,75.25"
      />
    <polyline
      stroke-width="5.000000e-01"
      stroke="#000000"
      stroke-opacity="1.000000"
      fill="none"
      points="186.14,70.00 186.14,75.25"
      />
    <polyline
      stroke-width="5.000000e-01"
      stroke="#000000"
      stroke-opacity="1.000000"
      fill="none"
      points="210.87,70.00 210.87,75.25"
      />
    <polyline
      stroke-width="5.000000e-01"
      stroke="#000000"
      stroke-opacity="1.000000"
      fill="none"
      points="235.58,70.00 235.58,80.50"
      />
    <polyline
      stroke-width="5.000000e-01"
      stroke="#000000"
      stroke-opacity="1.000000"
      fill="none"
      points="260.31,70.00 260.31,75.25"
      />
    <polyline
      stroke-width="5.000000e-01"
      stroke="#000000"
      stroke-opacity="1.000000"
      fill="none"
      points="285.02,70.00 285.02,75.25"
      />
    <polyline
      stroke-width="5.000000e-01"
      stroke="#000000"
      stroke-opacity="1.000000"
      fill="none"
      points="309.75,70.00 309.75,75.25"
      />
    <polyline
      stroke-width="5.000000e-01"
      stroke="#000000"
      stroke-opacity="1.000000"
      fill="none"
      points="334.46,70.00 334.46,75.25"
      />
    <polyline
      stroke-width="5.000000e-01"
      stroke="#000000"
      stroke-opacity="1.000000"
      fill="none"
      points="359.19,70.00 359.19,80.50"
      />
    <polyline
      stroke-width="5.000000e-01"
      stroke="#000000"
      stroke-opacity="1.000000"
      fill="none"
      points="383.90,70.00 383.90,75.25"
      />
    <polyline
      stroke-width="5.000000e-01"
      stroke="#000000"
      stroke-opacity="1.000000"
      fill="none"
      points="408.63,70.00 408.63,75.25"
      />
    <polyline
      stroke-width="5.000000e-01"
      stroke="#000000"
      stroke-opacity="1.000000"
      fill="none"
      points="433.34,70.00 433.34,75.25"
      />
    <polyline
      stroke-width="5.000000e-01"
      stroke="#000000"
      stroke-opacity="1.000000"
      fill="none"
      points="458.07,70.00 458.07,75.25"
      />
    <polyline
      stroke-width="5.000000e-01"
      stroke="#000000"
      stroke-opacity="1.000000"
      fill="none"
      points="482.78,70.00 482.78,80.50"
      />
    <polyline
      stroke-width="5.000000e-01"
      stroke="#000000"
      stroke-opacity="1.000000"
      fill="none"
      points="507.51,70.00 507.51,75.25"
      />
    <polyline
      stroke-width="5.000000e-01"
      stroke="#000000"
      stroke-opacity="1.000000"
      fill="none"
      points="532.22,70.00 532.22,75.25"
      />
    <polyline
      stroke-width="5.000000e-01"
      stroke="#000000"
      stroke-opacity="1.000000"
      fill="none"
      points="556.95,70.00 556.95,75.25"
      />
    <polyline
      stroke-width="5.000000e-01"
      stroke="#000000"
      stroke-opacity="1.000000"
      fill="none"
      points="581.66,70.00 581.66,75.25"
      />
    <polyline
      stroke-width="5.000000e-01"
      stroke="#000000"
      stroke-opacity="1.000000"
      fill="none"
      points="606.39,70.00 606.39,80.50"
      />
    <polyline
      stroke-width="5.000000e-01"
      stroke="#000000"
      stroke-opacity="1.000000"
      fill="none"
      points="631.10,70.00 631.10,75.25"
      />
    <polyline
      stroke-width="5.000000e-01"
      stroke="#000000"
      stroke-opacity="1.000000"
      fill="none"
      points="655.83,70.00 655.83,75.25"
      />
    <polyline
      stroke-width="5.000000e-01"
      stroke="#000000"
      stroke-opacity="1.000000"
      fill="none"
      points="680.54,70.00 680.54,75.25"
      />
    <polyline
      stroke-width="5.000000e-01"
      stroke="#000000"
      stroke-opacity="1.000000"
      fill="none"
      points="705.27,70.00 705.27,75.25"
      />
    <polyline
      stroke-width="5.000000e-01"
      stroke="#000000"
      stroke-opacity="1.000000"
      fill="none"
      points="729.98,70.00 729.98,80.50"
      />
    <polyline
      stroke-width="5.000000e-01"
      stroke="#000000"
      stroke-opacity="1.000000"
      fill="none"
      points="730.00,70.00 730.00,530.00"
      />
    <polyline
      stroke-width="5.000000e-01"
      stroke="#000000"
      stroke-opacity="1.000000"
      fill="none"
      points="724.75,78.98 730.00,78.98"
      />
    <polyline
      stroke-width="5.000000e-01"
      stroke="#000000"
      stroke-opacity="1.000000"
      fill="none"
      points="724.75,99.03 730.00,99.03"
      />
    <polyline
      stroke-width="5.000000e-01"
      stroke="#000000"
      stroke-opacity="1.000000"
      fill="none"
      points="719.50,119.07 730.00,119.07"
      />
    <polyline
      stroke-width="5.000000e-01"
      stroke="#000000"
      stroke-opacity="1.000000"
      fill="none"
      points="724.75,139.12 730.00,139.12"
      />
    <polyline
      stroke-width="5.000000e-01"
      stroke="#000000"
      stroke-opacity="1.000000"
      fill="none"
      points="724.75,159.16 730.00,159.16"
      />
    <polyline
      stroke-width="5.000000e-01"
      stroke="#000000"
      stroke-opacity="1.000000"
      fill="none"
      points="724.75,179.20 730.00,179.20"
      />
    <polyline
      stroke-width="5.000000e-01"
      stroke="#000000"
      stroke-opacity="1.000000"
      fill="none"
      points="724.75,199.25 730.00,199.25"
      />
    <polyline
      stroke-width="5.000000e-01"
      stroke="#000000"
      stroke-opacity="1.000000"
      fill="none"
      points="719.50,219.29 730.00,219.29"
      />
    <polyline
      stroke-width="5.000000e-01"
      stroke="#000000"
      stroke-opacity="1.000000"
      fill="none"
      points="724.75,239.34 730.00,239.34"
      />
    <polyline
      stroke-width="5.000000e-01"
      stroke="#000000"
      stroke-opacity="1.000000"
      fill="none"
      points="724.75,259.38 730.00,259.38"
      />
    <polyline
      stroke-width="5.000000e-01"
      stroke="#000000"
      stroke-opacity="1.000000"
      fill="none"
      points="724.75,279.43 730.00,279.43"
      />
    <polyline
      stroke-width="5.000000e-01"
      stroke="#000000"
      stroke-opacity="1.000000"
      fill="none"
      points="724.75,299.47 730.00,299.47"
      />
    <polyline
      stroke-width="5.000000e-01"
      stroke="#000000"
      stroke-opacity="1.000000"
      fill="none"
      points="719.50,319.52 730.00,319.52"
      />
    <polyline
      stroke-width="5.000000e-01"
      stroke="#000000"
      stroke-opacity="1.000000"
      fill="none"
      points="724.75,339.56 730.00,339.56"
      />
    <polyline
      stroke-width="5.000000e-01"
      stroke="#000000"
      stroke-opacity="1.000000"
      fill="none"
      points="724.75,359.61 730.00,359.61"
      />
    <polyline
      stroke-width="5.000000e-01"
      stroke="#000000"
      stroke-opacity="1.000000"
      fill="none"
      points="724.75,379.65 730.00,379.65"
      />
    <polyline
      stroke-width="5.000000e-01"
      stroke="#000000"
      stroke-opacity="1.000000"
      fill="none"
      points="724.75,399.69 730.00,399.69"
      />
    <polyline
      stroke-width="5.000000e-01"
      stroke="#000000"
      stroke-opacity="1.000000"
      fill="none"
      points="719.50,419.74 730.00,419.74"
      />
    <polyline
      stroke-width="5.000000e-01"
      stroke="#000000"
      stroke-opacity="1.000000"
      fill="none"
      points="724.75,439.78 730.00,439.78"
      />
    <polyline
      stroke-width="5.000000e-01"
      stroke="#000000"
      stroke-opacity="1.000000"
      fill="none"
      points="724.75,459.83 730.00,459.83"
      />
    <polyline
      stroke-width="5.000000e-01"
      stroke="#000000"
      stroke-opacity="1.000000"
      fill="none"
      points="724.75,479.87 730.00,479.87"
      />
    <polyline
      stroke-width="5.000000e-01"
      stroke="#000000"
      stroke-opacity="1.000000"
      fill="none"
      points="724.75,499.92 730.00,499.92"
      />
    <polyline
      stroke-width="5.000000e-01"
      stroke="#000000"
      stroke-opacity="1.000000"
      fill="none"
      points="719.50,519.96 730.00,519.96"
      />
    <polyline
      stroke-width="5.000000e-01"
      stroke="#000000"
      stroke-opacity="1.000000"
      fill="none"
      points="730.00,530.00 111.99,530.00"
      />
    <polyline
      stroke-width="5.000000e-01"
      stroke="#000000"
      stroke-opacity="1.000000"
      fill="none"
      points="729.98,519.50 729.98,530.00"
      />
    <polyline
      stroke-width="5.000000e-01"
      stroke="#000000"
      stroke-opacity="1.000000"
      fill="none"
      points="705.27,524.75 705.27,530.00"
      />
    <polyline
      stroke-width="5.000000e-01"
      stroke="#000000"
      stroke-opacity="1.000000"
      fill="none"
      points="680.54,524.75 680.54,530.00"
      />
    <polyline
      stroke-width="5.000000e-01"
      stroke="#000000"
      stroke-opacity="1.000000"
      fill="none"
      points="655.83,524.75 655.83,530.00"
      />
    <polyline
      stroke-width="5.000000e-01"
      stroke="#000000"
      stroke-opacity="1.000000"
      fill="none"
      points="631.10,524.75 631.10,530.00"
      />
    <polyline
      stroke-width="5.000000e-01"
      stroke="#000000"
      stroke-opacity="1.000000"
      fill="none"
      points="606.39,519.50 606.39,530.00"
      />
    <polyline
      stroke-width="5.000000e-01"
      stroke="#000000"
      stroke-opacity="1.000000"
      fill="none"
      points="581.66,524.75 581.66,530.00"
      />
    <polyline
      stroke-width="5.000000e-01"
      stroke="#000000"
      stroke-opacity="1.000000"
      fill="none"
      points="556.95,524.75 556.95,530.00"
      />
    <polyline
      stroke-width="5.000000e-01"
      stroke="#000000"
      stroke-opacity="1.000000"
      fill="none"
      points="532.22,524.75 532.22,530.00"
      />
    <polyline
      stroke-width="5.000000e-01"
      stroke="#000000"
      stroke-opacity="1.000000"
      fill="none"
      points="507.51,524.75 507.51,530.00"
      />
    <polyline
      stroke-width="5.000000e-01"
      stroke="#000000"
      stroke-opacity="1.000000"
      fill="none"
      points="482.78,519.50 482.78,530.00"
      />
    <polyline
      stroke-width="5.000000e-01"
      stroke="#000000"
      stroke-opacity="1.000000"
      fill="none"
      points="458.07,524.75 458.07,530.00"
      />
    <polyline
      stroke-width="5.000000e-01"
      stroke="#000000"
      stroke-opacity="1.000000"
      fill="none"
      points="433.34,524.75 433.34,530.00"
      />
    <polyline
      stroke-width="5.000000e-01"
      stroke="#000000"
      stroke-opacity="1.000000"
      fill="none"
      points="408.63,524.75 408.63,530.00"
      />
    <polyline
      stroke-width="5.000000e-01"
      stroke="#000000"
      stroke-opacity="1.000000"
      fill="none"
      points="383.90,524.75 383.90,530.00"
      />
    <polyline
      stroke-width="5.000000e-01"
      stroke="#000000"
      stroke-opacity="1.000000"
      fill="none"
      points="359.19,519.50 359.19,530.00"
      />
    <polyline
      stroke-width="5.000000e-01"
      stroke="#000000"
      stroke-opacity="1.000000"
      fill="none"
      points="334.46,524.75 334.46,530.00"
      />
    <polyline
      stroke-width="5.000000e-01"
      stroke="#000000"
      stroke-opacity="1.000000"
      fill="none"
      points="309.75,524.75 309.75,530.00"
      />
    <polyline
      stroke-width="5.000000e-01"
      stroke="#000000"
      stroke-opacity="1.000000"
      fill="none"
      points="285.02,524.75 285.02,530.00"
      />
    <polyline
      stroke-width="5.000000e-01"
      stroke="#000000"
      stroke-opacity="1.000000"
      fill="none"
      points="260.31,524.75 260.31,530.00"
      />
    <polyline
      stroke-width="5.000000e-01"
      stroke="#000000"
      stroke-opacity="1.000000"
      fill="none"
      points="235.58,519.50 235.58,530.00"
      />
    <polyline
      stroke-width="5.000000e-01"
      stroke="#000000"
      stroke-opacity="1.000000"
      fill="none"
      points="210.87,524.75 210.87,530.00"
      />
    <polyline
      stroke-width="5.000000e-01"
      stroke="#000000"
      stroke-opacity="1.000000"
      fill="none"
      points="186.14,524.75 186.14,530.00"
      />
    <polyline
      stroke-width="5.000000e-01"
      stroke="#000000"
      stroke-opacity="1.000000"
      fill="none"
      points="161.43,524.75 161.43,530.00"
      />
    <polyline
      stroke-width="5.000000e-01"
      stroke="#000000"
      stroke-opacity="1.000000"
      fill="none"
      points="136.70,524.75 136.70,530.00"
      />
    <polyline
      stroke-width="5.000000e-01"
      stroke="#000000"
      stroke-opacity="1.000000"
      fill="none"
      points="111.99,519.50 111.99,530.00"
      />
    <polyline
      stroke-width="5.000000e-01"
      stroke="#000000"
      stroke-opacity="1.000000"
      fill="none"
      points="111.99,530.00 111.99,70.00"
      />
    <polyline
      stroke-width="5.000000e-01"
      stroke="#000000"
      stroke-opacity="1.000000"
      fill="none"
      points="111.99,519.96 122.49,519.96"
      />
    <polyline
      stroke-width="5.000000e-01"
      stroke="#000000"
      stroke-opacity="1.000000"
      fill="none"
      points="111.99,499.92 117.24,499.92"
      />
    <polyline
      stroke-width="5.000000e-01"
      stroke="#000000"
      stroke-opacity="1.000000"
      fill="none"
      points="111.99,479.87 117.24,479.87"
      />
    <polyline
      stroke-width="5.000000e-01"
      stroke="#000000"
      stroke-opacity="1.000000"
      fill="none"
      points="111.99,459.83 117.24,459.83"
      />
    <polyline
      stroke-width="5.000000e-01"
      stroke="#000000"
      stroke-opacity="1.000000"
      fill="none"
      points="111.99,439.78 117.24,439.78"
      />
    <polyline
      stroke-width="5.000000e-01"
      stroke="#000000"
      stroke-opacity="1.000000"
      fill="none"
      points="111.99,419.74 122.49,419.74"
      />
    <polyline
      stroke-width="5.000000e-01"
      stroke="#000000"
      stroke-opacity="1.000000"
      fill="none"
      points="111.99,399.69 117.24,399.69"
      />
    <polyline
      stroke-width="5.000000e-01"
      stroke="#000000"
      stroke-opacity="1.000000"
      fill="none"
      points="111.99,379.65 117.24,379.65"
      />
    <polyline
      stroke-width="5.000000e-01"
      stroke="#000000"
      stroke-opacity="1.000000"
      fill="none"
      points="111.99,359.61 117.24,359.61"
      />
    <polyline
      stroke-width="5.000000e-01"
      stroke="#000000"
      stroke-opacity="1.000000"
      fill="none"
      points="111.99,339.56 117.24,339.56"
      />
    <polyline
      stroke-width="5.000000e-01"
      stroke="#000000"
      stroke-opacity="1.000000"
      fill="none"
      points="111.99,319.52 122.49,319.52"
      />
    <polyline
      stroke-width="5.000000e-01"
      stroke="#000000"
      stroke-opacity="1.000000"
      fill="none"
      points="111.99,299.47 117.24,299.47"
      />
    <polyline
      stroke-width="5.000000e-01"
      stroke="#000000"
      stroke-opacity="1.000000"
      fill="none"
      points="111.99,279.43 117.24,279.43"
      />
    <polyline
      stroke-width="5.000000e-01"
      stroke="#000000"
      stroke-opacity="1.000000"
      fill="none"
      points="111.99,259.38 117.24,259.38"
      />
    <polyline
      stroke-width="5.000000e-01"
      stroke="#000000"
      stroke-opacity="1.000000"
      fill="none"
      points="111.99,239.34 117.24,239.34"
      />
    <polyline
      stroke-width="5.000000e-01"
      stroke="#000000"
      stroke-opacity="1.000000"
      fill="none"
      points="111.99,219.29 122.49,219.29"
      />
    <polyline
      stroke-width="5.000000e-01"
      stroke="#000000"
      stroke-opacity="1.000000"
      fill="none"
      points="111.99,199.25 117.24,199.25"
      />
    <polyline
      stroke-width="5.000000e-01"
      stroke="#000000"
      stroke-opacity="1.000000"
      fill="none"
      points="111.99,179.20 117.24,179.20"
      />
    <polyline
      stroke-width="5.000000e-01"
      stroke="#000000"
      stroke-opacity="1.000000"
      fill="none"
      points="111.99,159.16 117.24,159.16"
      />
    <polyline
      stroke-width="5.000000e-01"
      stroke="#000000"
      stroke-opacity="1.000000"
      fill="none"
      points="111.99,139.12 117.24,139.12"
      />
    <polyline
      stroke-width="5.000000e-01"
      stroke="#000000"
      stroke-opacity="1.000000"
      fill="none"
      points="111.99,119.07 122.49,119.07"
      />
    <polyline
      stroke-width="5.000000e-01"
      stroke="#000000"
      stroke-opacity="1.000000"
      fill="none"
      points="111.99,99.03 117.24,99.03"
      />
    <polyline
      stroke-width="5.000000e-01"
      stroke="#000000"
      stroke-opacity="1.000000"
      fill="none"
      points="111.99,78.98 117.24,78.98"
      />
    <g
      clip-path="url(#text-clipping0)"
      >
      <text
        dominant-baseline="no-change"
        fill="#000000"
        fill-opacity="1.000000"
        xml:space="preserve"
        font-size="18"
        transform="matrix(1.000000 0.000000 0.000000 -1.000000 112.015137 49.000519)"
        text-anchor="middle"
        x="0.000000"
        y="7.112871"
><tspan font-family="sans-serif" font-style="normal" font-weight="normal">&#x30;</tspan></text>
    </g>
    <g
      clip-path="url(#text-clipping0)"
      >
      <text
        dominant-baseline="no-change"
        fill="#000000"
        fill-opacity="1.000000"
        xml:space="preserve"
        font-size="18"
        transform="matrix(1.000000 0.000000 0.000000 -1.000000 235.602893 49.000519)"
        text-anchor="middle"
        x="0.000000"
        y="7.112871"
><tspan font-family="sans-serif" font-style="normal" font-weight="normal">&#x31;&#x30;</tspan></text>
    </g>
    <g
      clip-path="url(#text-clipping0)"
      >
      <text
        dominant-baseline="no-change"
        fill="#000000"
        fill-opacity="1.000000"
        xml:space="preserve"
        font-size="18"
        transform="matrix(1.000000 0.000000 0.000000 -1.000000 359.190649 49.000519)"
        text-anchor="middle"
        x="0.000000"
        y="7.112871"
><tspan font-family="sans-serif" font-style="normal" font-weight="normal">&#x32;&#x30;</tspan></text>
    </g>
    <g
      clip-path="url(#text-clipping0)"
      >
      <text
        dominant-baseline="no-change"
        fill="#000000"
        fill-opacity="1.000000"
        xml:space="preserve"
        font-size="18"
        transform="matrix(1.000000 0.000000 0.000000 -1.000000 482.802820 49.000519)"
        text-anchor="middle"
        x="0.000000"
        y="7.112871"
><tspan font-family="sans-serif" font-style="normal" font-weight="normal">&#x33;&#x30;</tspan></text>
    </g>
    <g
      clip-path="url(#text-clipping0)"
      >
      <text
        dominant-baseline="no-change"
        fill="#000000"
        fill-opacity="1.000000"
        xml:space="preserve"
        font-size="18"
        transform="matrix(1.000000 0.000000 0.000000 -1.000000 606.390576 49.000519)"
        text-anchor="middle"
        x="0.000000"
        y="7.112871"
><tspan font-family="sans-serif" font-style="normal" font-weight="normal">&#x34;&#x30;</tspan></text>
    </g>
    <g
      clip-path="url(#text-clipping0)"
      >
      <text
        dominant-baseline="no-change"
        fill="#000000"
        fill-opacity="1.000000"
        xml:space="preserve"
        font-size="18"
        transform="matrix(1.000000 0.000000 0.000000 -1.000000 730.002747 49.000519)"
        text-anchor="middle"
        x="0.000000"
        y="7.112871"
><tspan font-family="sans-serif" font-style="normal" font-weight="normal">&#x35;&#x30;</tspan></text>
    </g>
    <g
      clip-path="url(#text-clipping0)"
      >
      <text
        dominant-baseline="no-change"
        fill="#000000"
        fill-opacity="1.000000"
        xml:space="preserve"
        font-size="18"
        transform="matrix(1.000000 0.000000 0.000000 -1.000000 105.008087 119.071017)"
        text-anchor="end"
        x="0.000000"
        y="7.112871"
><tspan font-family="sans-serif" font-style="normal" font-weight="normal">&#x31;&#x30;</tspan></text>
    </g>
    <g
      clip-path="url(#text-clipping0)"
      >
      <text
        dominant-baseline="no-change"
        fill="#000000"
        fill-opacity="1.000000"
        xml:space="preserve"
        font-size="18"
        transform="matrix(1.000000 0.000000 0.000000 -1.000000 105.008087 219.293802)"
        text-anchor="end"
        x="0.000000"
        y="7.112871"
><tspan font-family="sans-serif" font-style="normal" font-weight="normal">&#x32;&#x30;</tspan></text>
    </g>
    <g
      clip-path="url(#text-clipping0)"
      >
      <text
        dominant-baseline="no-change"
        fill="#000000"
        fill-opacity="1.000000"
        xml:space="preserve"
        font-size="18"
        transform="matrix(1.000000 0.000000 0.000000 -1.000000 105.008087 319.516587)"
        text-anchor="end"
        x="0.000000"
        y="7.112871"
><tspan font-family="sans-serif" font-style="normal" font-weight="normal">&#x33;&#x30;</tspan></text>
    </g>
    <g
      clip-path="url(#text-clipping0)"
      >
      <text
        dominant-baseline="no-change"
        fill="#000000"
        fill-opacity="1.000000"
        xml:space="preserve"
        font-size="18"
        transform="matrix(1.000000 0.000000 0.000000 -1.000000 105.008087 419.739372)"
        text-anchor="end"
        x="0.000000"
        y="7.112871"
><tspan font-family="sans-serif" font-style="normal" font-weight="normal">&#x34;&#x30;</tspan></text>
    </g>
    <g
      clip-path="url(#text-clipping0)"
      >
      <text
        dominant-baseline="no-change"
        fill="#000000"
        fill-opacity="1.000000"
        xml:space="preserve"
        font-size="18"
        transform="matrix(1.000000 0.000000 0.000000 -1.000000 105.008087 519.962157)"
        text-anchor="end"
        x="0.000000"
        y="7.112871"
><tspan font-family="sans-serif" font-style="normal" font-weight="normal">&#x35;&#x30;</tspan></text>
    </g>
    <g
      clip-path="url(#text-clipping0)"
      >
      <text
        dominant-baseline="no-change"
        fill="#000000"
        fill-opacity="1.000000"
        xml:space="preserve"
        font-size="18"
        transform="matrix(1.000000 0.000000 0.000000 -1.000000 421.008942 25.196081)"
        text-anchor="middle"
        x="0.000000"
        y="7.112871"
><tspan font-family="sans-serif" font-style="normal" font-weight="normal">&#x54;&#x20;&#x5b;&#x4b;&#x5d;</tspan></text>
    </g>
    <g
      clip-path="url(#text-clipping0)"
      >
      <text
        dominant-baseline="no-change"
        fill="#000000"
        fill-opacity="1.000000"
        xml:space="preserve"
        font-size="18"
        transform="matrix(0.000000 1.000000 1.000000 -0.000000 41.993469 300.009156)"
        text-anchor="middle"
        x="0.000000"
        y="7.112871"
><tspan font-family="sans-serif" font-style="normal" font-weight="normal">&#x43;&#x6f;&#x6e;&#x64;&#x75;&#x63;&#x74;&#x69;&#x76;&#x69;&#x74;&#x79;&#x20;&#x6b;&#x20;&#x5b;&#x57;&#x2f;&#x6d;&#x2d;&#x4b;&#x5d;</tspan></text>
    </g>
  </g>
</svg>
