<?xml version="1.0" encoding="UTF-8"?>
<!DOCTYPE svg PUBLIC "-//W3C//DTD SVG 1.1//EN"
        "http://www.w3.org/Graphics/SVG/1.1/DTD/svg11.dtd">
<svg
  xmlns="http://www.w3.org/2000/svg"
  xmlns:xlink="http://www.w3.org/1999/xlink"
  version="1.1"
  width="400pt"
  height="300pt"
  viewBox="0 0 400 300"
  >
  <rect
    x="0"
    y="0"
    width="400"
    height="300"
    stroke="none"
    fill="#FFFFFF"
    fill-opacity="1.000000"
    />
  <g
    transform="matrix(1 0 0 -1 0 300)"
    >
    <polyline
      stroke-width="2.000000e+00"
      stroke="#FF0000"
      stroke-opacity="1.000000"
      fill="none"
      points="56.00,35.00 59.08,39.60 62.17,44.20 65.26,48.79 68.35,53.40 71.45,58.00 74.54,62.60 77.63,67.20 80.72,71.79 83.80,76.39 
      86.89,81.00 89.98,85.60 93.07,90.20 96.17,94.80 99.26,99.39 102.35,103.99 105.44,108.60 108.52,113.20 111.61,117.80 114.70,122.39 
      117.79,126.99 120.89,131.60 123.98,136.20 127.07,140.80 130.16,145.39 133.24,149.99 136.33,154.59 139.42,159.20 142.51,163.80 145.61,168.40 
      148.70,172.99 151.79,177.59 154.88,182.20 157.96,186.80 161.05,191.40 164.14,195.99 167.23,200.59 170.33,205.19 173.42,209.80 176.51,214.40 
      179.60,218.99 182.68,223.59 185.77,228.19 188.86,232.80 191.95,237.40 195.05,242.00 198.14,246.59 201.23,251.19 204.32,255.79 207.40,260.40 
      210.49,265.00 213.58,260.48 216.67,256.15 219.77,251.97 222.86,247.96 225.95,244.09 229.04,240.35 232.12,236.75 235.21,233.27 238.30,229.91 
      241.39,226.65 244.49,223.52 247.58,220.48 250.67,217.54 253.76,214.68 256.84,211.92 259.93,209.23 263.02,206.63 266.11,204.11 269.21,201.67 
      272.30,199.29 275.39,196.97 278.48,194.72 281.56,192.52 284.65,190.40 287.74,188.32 290.83,186.31 293.93,184.34 297.02,182.43 300.11,180.56 
      303.20,178.74 306.28,176.97 309.37,175.24 312.46,173.55 315.55,171.90 318.65,170.29 321.74,168.72 324.83,167.18 327.92,165.68 331.00,164.21 
      334.09,162.77 337.18,161.37 340.27,159.99 343.37,158.65 346.46,157.34 349.55,156.05 352.64,154.79 355.72,153.56 358.81,152.35 361.90,151.15 
      364.99,149.99 "/>
    <polyline
      stroke-width="2.000000e+00"
      stroke="#0000FF"
      stroke-opacity="1.000000"
      fill="none"
      points="56.00,35.00 59.08,36.40 62.17,38.38 65.26,40.87 68.35,43.84 71.45,47.24 74.54,51.04 77.63,55.20 80.72,59.68 83.80,64.46 
      86.89,69.47 89.98,74.71 93.07,80.14 96.17,85.73 99.26,91.45 102.35,97.26 105.44,103.15 108.52,109.10 111.61,115.07 114.70,121.04 
      117.79,126.99 120.89,132.91 123.98,138.77 127.07,144.57 130.16,150.26 133.24,155.85 136.33,161.32 139.42,166.66 142.51,171.83 145.61,176.85 
      148.70,181.71 151.79,186.37 154.88,190.85 157.96,195.12 161.05,199.20 164.14,203.06 167.23,206.70 170.33,210.11 173.42,213.30 176.51,216.27 
      179.60,218.99 182.68,221.49 185.77,223.75 188.86,225.76 191.95,227.56 195.05,229.11 198.14,230.43 201.23,231.53 204.32,232.38 207.40,233.01 
      210.49,233.43 213.58,233.64 216.67,233.63 219.77,233.41 222.86,232.99 225.95,232.38 229.04,231.59 232.12,230.60 235.21,229.45 238.30,228.13 
      241.39,226.65 244.49,225.04 247.58,223.27 250.67,221.38 253.76,219.37 256.84,217.24 259.93,215.01 263.02,212.69 266.11,210.28 269.21,207.81 
      272.30,205.27 275.39,202.68 278.48,200.04 281.56,197.38 284.65,194.70 287.74,192.00 290.83,189.31 293.93,186.63 297.02,183.97 300.11,181.33 
      303.20,178.74 306.28,176.21 309.37,173.74 312.46,171.33 315.55,169.01 318.65,166.79 321.74,164.67 324.83,162.64 327.92,160.75 331.00,158.98 
      334.09,157.34 337.18,155.85 340.27,154.51 343.37,153.32 346.46,152.31 349.55,151.46 352.64,150.79 355.72,150.31 358.81,150.00 361.90,149.91 
      364.99,149.99 "/>
    <polyline
      stroke-width="5.000000e-01"
      stroke="#000000"
      stroke-opacity="1.000000"
      fill="none"
      points="56.00,35.00 365.00,35.00"
      />
    <polyline
      stroke-width="5.000000e-01"
      stroke="#000000"
      stroke-opacity="1.000000"
      fill="none"
      points="56.00,35.00 56.00,40.25"
      />
    <polyline
      stroke-width="5.000000e-01"
      stroke="#000000"
      stroke-opacity="1.000000"
      fill="none"
      points="71.45,35.00 71.45,37.62"
      />
    <polyline
      stroke-width="5.000000e-01"
      stroke="#000000"
      stroke-opacity="1.000000"
      fill="none"
      points="86.89,35.00 86.89,37.62"
      />
    <polyline
      stroke-width="5.000000e-01"
      stroke="#000000"
      stroke-opacity="1.000000"
      fill="none"
      points="102.35,35.00 102.35,37.62"
      />
    <polyline
      stroke-width="5.000000e-01"
      stroke="#000000"
      stroke-opacity="1.000000"
      fill="none"
      points="117.79,35.00 117.79,37.62"
      />
    <polyline
      stroke-width="5.000000e-01"
      stroke="#000000"
      stroke-opacity="1.000000"
      fill="none"
      points="133.24,35.00 133.24,40.25"
      />
    <polyline
      stroke-width="5.000000e-01"
      stroke="#000000"
      stroke-opacity="1.000000"
      fill="none"
      points="148.70,35.00 148.70,37.62"
      />
    <polyline
      stroke-width="5.000000e-01"
      stroke="#000000"
      stroke-opacity="1.000000"
      fill="none"
      points="164.14,35.00 164.14,37.62"
      />
    <polyline
      stroke-width="5.000000e-01"
      stroke="#000000"
      stroke-opacity="1.000000"
      fill="none"
      points="179.60,35.00 179.60,37.62"
      />
    <polyline
      stroke-width="5.000000e-01"
      stroke="#000000"
      stroke-opacity="1.000000"
      fill="none"
      points="195.05,35.00 195.05,37.62"
      />
    <polyline
      stroke-width="5.000000e-01"
      stroke="#000000"
      stroke-opacity="1.000000"
      fill="none"
      points="210.49,35.00 210.49,40.25"
      />
    <polyline
      stroke-width="5.000000e-01"
      stroke="#000000"
      stroke-opacity="1.000000"
      fill="none"
      points="225.95,35.00 225.95,37.62"
      />
    <polyline
      stroke-width="5.000000e-01"
      stroke="#000000"
      stroke-opacity="1.000000"
      fill="none"
      points="241.39,35.00 241.39,37.62"
      />
    <polyline
      stroke-width="5.000000e-01"
      stroke="#000000"
      stroke-opacity="1.000000"
      fill="none"
      points="256.84,35.00 256.84,37.62"
      />
    <polyline
      stroke-width="5.000000e-01"
      stroke="#000000"
      stroke-opacity="1.000000"
      fill="none"
      points="272.30,35.00 272.30,37.62"
      />
    <polyline
      stroke-width="5.000000e-01"
      stroke="#000000"
      stroke-opacity="1.000000"
      fill="none"
      points="287.74,35.00 287.74,40.25"
      />
    <polyline
      stroke-width="5.000000e-01"
      stroke="#000000"
      stroke-opacity="1.000000"
      fill="none"
      points="303.20,35.00 303.20,37.62"
      />
    <polyline
      stroke-width="5.000000e-01"
      stroke="#000000"
      stroke-opacity="1.000000"
      fill="none"
      points="318.65,35.00 318.65,37.62"
      />
    <polyline
      stroke-width="5.000000e-01"
      stroke="#000000"
      stroke-opacity="1.000000"
      fill="none"
      points="334.09,35.00 334.09,37.62"
      />
    <polyline
      stroke-width="5.000000e-01"
      stroke="#000000"
      stroke-opacity="1.000000"
      fill="none"
      points="349.55,35.00 349.55,37.62"
      />
    <polyline
      stroke-width="5.000000e-01"
      stroke="#000000"
      stroke-opacity="1.000000"
      fill="none"
      points="364.99,35.00 364.99,40.25"
      />
    <polyline
      stroke-width="5.000000e-01"
      stroke="#000000"
      stroke-opacity="1.000000"
      fill="none"
      points="365.00,35.00 365.00,265.00"
      />
    <polyline
      stroke-width="5.000000e-01"
      stroke="#000000"
      stroke-opacity="1.000000"
      fill="none"
      points="359.75,35.00 365.00,35.00"
      />
    <polyline
      stroke-width="5.000000e-01"
      stroke="#000000"
      stroke-opacity="1.000000"
      fill="none"
      points="362.38,46.50 365.00,46.50"
      />
    <polyline
      stroke-width="5.000000e-01"
      stroke="#000000"
      stroke-opacity="1.000000"
      fill="none"
      points="362.38,58.00 365.00,58.00"
      />
    <polyline
      stroke-width="5.000000e-01"
      stroke="#000000"
      stroke-opacity="1.000000"
      fill="none"
      points="362.38,69.50 365.00,69.50"
      />
    <polyline
      stroke-width="5.000000e-01"
      stroke="#000000"
      stroke-opacity="1.000000"
      fill="none"
      points="362.38,81.00 365.00,81.00"
      />
    <polyline
      stroke-width="5.000000e-01"
      stroke="#000000"
      stroke-opacity="1.000000"
      fill="none"
      points="359.75,92.50 365.00,92.50"
      />
    <polyline
      stroke-width="5.000000e-01"
      stroke="#000000"
      stroke-opacity="1.000000"
      fill="none"
      points="362.38,103.99 365.00,103.99"
      />
    <polyline
      stroke-width="5.000000e-01"
      stroke="#000000"
      stroke-opacity="1.000000"
      fill="none"
      points="362.38,115.49 365.00,115.49"
      />
    <polyline
      stroke-width="5.000000e-01"
      stroke="#000000"
      stroke-opacity="1.000000"
      fill="none"
      points="362.38,126.99 365.00,126.99"
      />
    <polyline
      stroke-width="5.000000e-01"
      stroke="#000000"
      stroke-opacity="1.000000"
      fill="none"
      points="362.38,138.49 365.00,138.49"
      />
    <polyline
      stroke-width="5.000000e-01"
      stroke="#000000"
      stroke-opacity="1.000000"
      fill="none"
      points="359.75,149.99 365.00,149.99"
      />
    <polyline
      stroke-width="5.000000e-01"
      stroke="#000000"
      stroke-opacity="1.000000"
      fill="none"
      points="362.38,161.49 365.00,161.49"
      />
    <polyline
      stroke-width="5.000000e-01"
      stroke="#000000"
      stroke-opacity="1.000000"
      fill="none"
      points="362.38,172.99 365.00,172.99"
      />
    <polyline
      stroke-width="5.000000e-01"
      stroke="#000000"
      stroke-opacity="1.000000"
      fill="none"
      points="362.38,184.49 365.00,184.49"
      />
    <polyline
      stroke-width="5.000000e-01"
      stroke="#000000"
      stroke-opacity="1.000000"
      fill="none"
      points="362.38,195.99 365.00,195.99"
      />
    <polyline
      stroke-width="5.000000e-01"
      stroke="#000000"
      stroke-opacity="1.000000"
      fill="none"
      points="359.75,207.49 365.00,207.49"
      />
    <polyline
      stroke-width="5.000000e-01"
      stroke="#000000"
      stroke-opacity="1.000000"
      fill="none"
      points="362.38,218.99 365.00,218.99"
      />
    <polyline
      stroke-width="5.000000e-01"
      stroke="#000000"
      stroke-opacity="1.000000"
      fill="none"
      points="362.38,230.49 365.00,230.49"
      />
    <polyline
      stroke-width="5.000000e-01"
      stroke="#000000"
      stroke-opacity="1.000000"
      fill="none"
      points="362.38,242.00 365.00,242.00"
      />
    <polyline
      stroke-width="5.000000e-01"
      stroke="#000000"
      stroke-opacity="1.000000"
      fill="none"
      points="362.38,253.50 365.00,253.50"
      />
    <polyline
      stroke-width="5.000000e-01"
      stroke="#000000"
      stroke-opacity="1.000000"
      fill="none"
      points="359.75,265.00 365.00,265.00"
      />
    <polyline
      stroke-width="5.000000e-01"
      stroke="#000000"
      stroke-opacity="1.000000"
      fill="none"
      points="365.00,265.00 56.00,265.00"
      />
    <polyline
      stroke-width="5.000000e-01"
      stroke="#000000"
      stroke-opacity="1.000000"
      fill="none"
      points="364.99,259.75 364.99,265.00"
      />
    <polyline
      stroke-width="5.000000e-01"
      stroke="#000000"
      stroke-opacity="1.000000"
      fill="none"
      points="349.55,262.37 349.55,265.00"
      />
    <polyline
      stroke-width="5.000000e-01"
      stroke="#000000"
      stroke-opacity="1.000000"
      fill="none"
      points="334.09,262.37 334.09,265.00"
      />
    <polyline
      stroke-width="5.000000e-01"
      stroke="#000000"
      stroke-opacity="1.000000"
      fill="none"
      points="318.65,262.37 318.65,265.00"
      />
    <polyline
      stroke-width="5.000000e-01"
      stroke="#000000"
      stroke-opacity="1.000000"
      fill="none"
      points="303.20,262.37 303.20,265.00"
      />
    <polyline
      stroke-width="5.000000e-01"
      stroke="#000000"
      stroke-opacity="1.000000"
      fill="none"
      points="287.74,259.75 287.74,265.00"
      />
    <polyline
      stroke-width="5.000000e-01"
      stroke="#000000"
      stroke-opacity="1.000000"
      fill="none"
      points="272.30,262.37 272.30,265.00"
      />
    <polyline
      stroke-width="5.000000e-01"
      stroke="#000000"
      stroke-opacity="1.000000"
      fill="none"
      points="256.84,262.37 256.84,265.00"
      />
    <polyline
      stroke-width="5.000000e-01"
      stroke="#000000"
      stroke-opacity="1.000000"
      fill="none"
      points="241.39,262.37 241.39,265.00"
      />
    <polyline
      stroke-width="5.000000e-01"
      stroke="#000000"
      stroke-opacity="1.000000"
      fill="none"
      points="225.95,262.37 225.95,265.00"
      />
    <polyline
      stroke-width="5.000000e-01"
      stroke="#000000"
      stroke-opacity="1.000000"
      fill="none"
      points="210.49,259.75 210.49,265.00"
      />
    <polyline
      stroke-width="5.000000e-01"
      stroke="#000000"
      stroke-opacity="1.000000"
      fill="none"
      points="195.05,262.37 195.05,265.00"
      />
    <polyline
      stroke-width="5.000000e-01"
      stroke="#000000"
      stroke-opacity="1.000000"
      fill="none"
      points="179.60,262.37 179.60,265.00"
      />
    <polyline
      stroke-width="5.000000e-01"
      stroke="#000000"
      stroke-opacity="1.000000"
      fill="none"
      points="164.14,262.37 164.14,265.00"
      />
    <polyline
      stroke-width="5.000000e-01"
      stroke="#000000"
      stroke-opacity="1.000000"
      fill="none"
      points="148.70,262.37 148.70,265.00"
      />
    <polyline
      stroke-width="5.000000e-01"
      stroke="#000000"
      stroke-opacity="1.000000"
      fill="none"
      points="133.24,259.75 133.24,265.00"
      />
    <polyline
      stroke-width="5.000000e-01"
      stroke="#000000"
      stroke-opacity="1.000000"
      fill="none"
      points="117.79,262.37 117.79,265.00"
      />
    <polyline
      stroke-width="5.000000e-01"
      stroke="#000000"
      stroke-opacity="1.000000"
      fill="none"
      points="102.35,262.37 102.35,265.00"
      />
    <polyline
      stroke-width="5.000000e-01"
      stroke="#000000"
      stroke-opacity="1.000000"
      fill="none"
      points="86.89,262.37 86.89,265.00"
      />
    <polyline
      stroke-width="5.000000e-01"
      stroke="#000000"
      stroke-opacity="1.000000"
      fill="none"
      points="71.45,262.37 71.45,265.00"
      />
    <polyline
      stroke-width="5.000000e-01"
      stroke="#000000"
      stroke-opacity="1.000000"
      fill="none"
      points="56.00,259.75 56.00,265.00"
      />
    <polyline
      stroke-width="5.000000e-01"
      stroke="#000000"
      stroke-opacity="1.000000"
      fill="none"
      points="56.00,265.00 56.00,35.00"
      />
    <polyline
      stroke-width="5.000000e-01"
      stroke="#000000"
      stroke-opacity="1.000000"
      fill="none"
      points="56.00,265.00 61.24,265.00"
      />
    <polyline
      stroke-width="5.000000e-01"
      stroke="#000000"
      stroke-opacity="1.000000"
      fill="none"
      points="56.00,253.50 58.62,253.50"
      />
    <polyline
      stroke-width="5.000000e-01"
      stroke="#000000"
      stroke-opacity="1.000000"
      fill="none"
      points="56.00,242.00 58.62,242.00"
      />
    <polyline
      stroke-width="5.000000e-01"
      stroke="#000000"
      stroke-opacity="1.000000"
      fill="none"
      points="56.00,230.49 58.62,230.49"
      />
    <polyline
      stroke-width="5.000000e-01"
      stroke="#000000"
      stroke-opacity="1.000000"
      fill="none"
      points="56.00,218.99 58.62,218.99"
      />
    <polyline
      stroke-width="5.000000e-01"
      stroke="#000000"
      stroke-opacity="1.000000"
      fill="none"
      points="56.00,207.49 61.24,207.49"
      />
    <polyline
      stroke-width="5.000000e-01"
      stroke="#000000"
      stroke-opacity="1.000000"
      fill="none"
      points="56.00,195.99 58.62,195.99"
      />
    <polyline
      stroke-width="5.000000e-01"
      stroke="#000000"
      stroke-opacity="1.000000"
      fill="none"
      points="56.00,184.49 58.62,184.49"
      />
    <polyline
      stroke-width="5.000000e-01"
      stroke="#000000"
      stroke-opacity="1.000000"
      fill="none"
      points="56.00,172.99 58.62,172.99"
      />
    <polyline
      stroke-width="5.000000e-01"
      stroke="#000000"
      stroke-opacity="1.000000"
      fill="none"
      points="56.00,161.49 58.62,161.49"
      />
    <polyline
      stroke-width="5.000000e-01"
      stroke="#000000"
      stroke-opacity="1.000000"
      fill="none"
      points="56.00,149.99 61.24,149.99"
      />
    <polyline
      stroke-width="5.000000e-01"
      stroke="#000000"
      stroke-opacity="1.000000"
      fill="none"
      points="56.00,138.49 58.62,138.49"
      />
    <polyline
      stroke-width="5.000000e-01"
      stroke="#000000"
      stroke-opacity="1.000000"
      fill="none"
      points="56.00,126.99 58.62,126.99"
      />
    <polyline
      stroke-width="5.000000e-01"
      stroke="#000000"
      stroke-opacity="1.000000"
      fill="none"
      points="56.00,115.49 58.62,115.49"
      />
    <polyline
      stroke-width="5.000000e-01"
      stroke="#000000"
      stroke-opacity="1.000000"
      fill="none"
      points="56.00,103.99 58.62,103.99"
      />
    <polyline
      stroke-width="5.000000e-01"
      stroke="#000000"
      stroke-opacity="1.000000"
      fill="none"
      points="56.00,92.50 61.24,92.50"
      />
    <polyline
      stroke-width="5.000000e-01"
      stroke="#000000"
      stroke-opacity="1.000000"
      fill="none"
      points="56.00,81.00 58.62,81.00"
      />
    <polyline
      stroke-width="5.000000e-01"
      stroke="#000000"
      stroke-opacity="1.000000"
      fill="none"
      points="56.00,69.50 58.62,69.50"
      />
    <polyline
      stroke-width="5.000000e-01"
      stroke="#000000"
      stroke-opacity="1.000000"
      fill="none"
      points="56.00,58.00 58.62,58.00"
      />
    <polyline
      stroke-width="5.000000e-01"
      stroke="#000000"
      stroke-opacity="1.000000"
      fill="none"
      points="56.00,46.50 58.62,46.50"
      />
    <polyline
      stroke-width="5.000000e-01"
      stroke="#000000"
      stroke-opacity="1.000000"
      fill="none"
      points="56.00,35.00 61.24,35.00"
      />
    <g
      clip-path="url(#text-clipping0)"
      >
      <text
        dominant-baseline="no-change"
        fill="#000000"
        fill-opacity="1.000000"
        xml:space="preserve"
        font-size="9"
        transform="matrix(1.000000 0.000000 0.000000 -1.000000 56.007569 24.500259)"
        text-anchor="middle"
        x="0.000000"
        y="3.806436"
><tspan font-family="sans-serif" font-style="normal" font-weight="normal">&#x30;&#x2e;&#x30;</tspan></text>
    </g>
    <g
      clip-path="url(#text-clipping0)"
      >
      <text
        dominant-baseline="no-change"
        fill="#000000"
        fill-opacity="1.000000"
        xml:space="preserve"
        font-size="9"
        transform="matrix(1.000000 0.000000 0.000000 -1.000000 133.256020 24.500259)"
        text-anchor="middle"
        x="0.000000"
        y="3.806436"
><tspan font-family="sans-serif" font-style="normal" font-weight="normal">&#x30;&#x2e;&#x35;</tspan></text>
    </g>
    <g
      clip-path="url(#text-clipping0)"
      >
      <text
        dominant-baseline="no-change"
        fill="#000000"
        fill-opacity="1.000000"
        xml:space="preserve"
        font-size="9"
        transform="matrix(1.000000 0.000000 0.000000 -1.000000 210.504471 24.500259)"
        text-anchor="middle"
        x="0.000000"
        y="3.806436"
><tspan font-family="sans-serif" font-style="normal" font-weight="normal">&#x31;&#x2e;&#x30;</tspan></text>
    </g>
    <g
      clip-path="url(#text-clipping0)"
      >
      <text
        dominant-baseline="no-change"
        fill="#000000"
        fill-opacity="1.000000"
        xml:space="preserve"
        font-size="9"
        transform="matrix(1.000000 0.000000 0.000000 -1.000000 287.752922 24.500259)"
        text-anchor="middle"
        x="0.000000"
        y="3.806436"
><tspan font-family="sans-serif" font-style="normal" font-weight="normal">&#x31;&#x2e;&#x35;</tspan></text>
    </g>
    <g
      clip-path="url(#text-clipping0)"
      >
      <text
        dominant-baseline="no-change"
        fill="#000000"
        fill-opacity="1.000000"
        xml:space="preserve"
        font-size="9"
        transform="matrix(1.000000 0.000000 0.000000 -1.000000 365.001373 24.500259)"
        text-anchor="middle"
        x="0.000000"
        y="3.806436"
><tspan font-family="sans-serif" font-style="normal" font-weight="normal">&#x32;&#x2e;&#x30;</tspan></text>
    </g>
    <g
      clip-path="url(#text-clipping0)"
      >
      <text
        dominant-baseline="no-change"
        fill="#000000"
        fill-opacity="1.000000"
        xml:space="preserve"
        font-size="9"
        transform="matrix(1.000000 0.000000 0.000000 -1.000000 52.504044 34.998627)"
        text-anchor="end"
        x="0.000000"
        y="3.806436"
><tspan font-family="sans-serif" font-style="normal" font-weight="normal">&#x30;&#x2e;&#x30;</tspan></text>
    </g>
    <g
      clip-path="url(#text-clipping0)"
      >
      <text
        dominant-baseline="no-change"
        fill="#000000"
        fill-opacity="1.000000"
        xml:space="preserve"
        font-size="9"
        transform="matrix(1.000000 0.000000 0.000000 -1.000000 52.504044 92.495499)"
        text-anchor="end"
        x="0.000000"
        y="3.806436"
><tspan font-family="sans-serif" font-style="normal" font-weight="normal">&#x30;&#x2e;&#x35;</tspan></text>
    </g>
    <g
      clip-path="url(#text-clipping0)"
      >
      <text
        dominant-baseline="no-change"
        fill="#000000"
        fill-opacity="1.000000"
        xml:space="preserve"
        font-size="9"
        transform="matrix(1.000000 0.000000 0.000000 -1.000000 52.504044 149.992370)"
        text-anchor="end"
        x="0.000000"
        y="3.806436"
><tspan font-family="sans-serif" font-style="normal" font-weight="normal">&#x31;&#x2e;&#x30;</tspan></text>
    </g>
    <g
      clip-path="url(#text-clipping0)"
      >
      <text
        dominant-baseline="no-change"
        fill="#000000"
        fill-opacity="1.000000"
        xml:space="preserve"
        font-size="9"
        transform="matrix(1.000000 0.000000 0.000000 -1.000000 52.504044 207.501450)"
        text-anchor="end"
        x="0.000000"
        y="3.806436"
><tspan font-family="sans-serif" font-style="normal" font-weight="normal">&#x31;&#x2e;&#x35;</tspan></text>
    </g>
    <g
      clip-path="url(#text-clipping0)"
      >
      <text
        dominant-baseline="no-change"
        fill="#000000"
        fill-opacity="1.000000"
        xml:space="preserve"
        font-size="9"
        transform="matrix(1.000000 0.000000 0.000000 -1.000000 52.504044 264.998321)"
        text-anchor="end"
        x="0.000000"
        y="3.806436"
><tspan font-family="sans-serif" font-style="normal" font-weight="normal">&#x32;&#x2e;&#x30;</tspan></text>
    </g>
    <g
      clip-path="url(#text-clipping0)"
      >
      <text
        dominant-baseline="no-change"
        fill="#000000"
        fill-opacity="1.000000"
        xml:space="preserve"
        font-size="9"
        transform="matrix(1.000000 0.000000 0.000000 -1.000000 210.504471 12.598041)"
        text-anchor="middle"
        x="0.000000"
        y="3.806436"
><tspan font-family="sans-serif" font-style="normal" font-weight="normal">&#x78;</tspan></text>
    </g>
    <g
      clip-path="url(#text-clipping0)"
      >
      <text
        dominant-baseline="no-change"
        fill="#000000"
        fill-opacity="1.000000"
        xml:space="preserve"
        font-size="9"
        transform="matrix(0.000000 1.000000 1.000000 -0.000000 20.996735 150.004578)"
        text-anchor="middle"
        x="0.000000"
        y="3.806436"
><tspan font-family="sans-serif" font-style="normal" font-weight="normal">&#x79;</tspan></text>
    </g>
  </g>
</svg>
