<?xml version="1.0" encoding="UTF-8"?>
<!DOCTYPE svg PUBLIC "-//W3C//DTD SVG 1.1//EN"
        "http://www.w3.org/Graphics/SVG/1.1/DTD/svg11.dtd">
<svg
  xmlns="http://www.w3.org/2000/svg"
  xmlns:xlink="http://www.w3.org/1999/xlink"
  version="1.1"
  width="800pt"
  height="600pt"
  viewBox="0 0 800 600"
  >
  <rect
    x="0"
    y="0"
    width="800"
    height="600"
    stroke="none"
    fill="#FFFFFF"
    fill-opacity="1.000000"
    />
  <g
    transform="matrix(1 0 0 -1 0 600)"
    >
    <polyline
      stroke-width="3.000000e+00"
      stroke="#FF0000"
      stroke-opacity="1.000000"
      fill="none"
      points="111.99,70.00 112.60,71.46 113.24,72.93 113.85,74.39 114.46,75.86 115.07,77.32 115.70,78.79 116.31,80.25 116.92,81.69 117.56,83.16 
      118.17,84.60 118.78,86.04 119.41,87.48 120.02,88.92 120.63,90.36 121.27,91.80 121.88,93.24 122.49,94.68 123.12,96.10 123.73,97.54 
      124.34,98.95 124.95,100.37 125.59,101.81 126.20,103.23 126.81,104.64 127.45,106.06 128.06,107.47 128.67,108.87 129.30,110.28 129.91,111.67 
      130.52,113.09 131.16,114.48 131.77,115.87 132.38,117.29 133.01,118.68 133.62,120.07 134.23,121.44 134.84,122.83 135.48,124.22 136.09,125.59 
      136.70,126.98 137.33,128.35 137.94,129.72 138.55,131.11 139.19,132.47 139.80,133.84 140.41,135.21 141.04,136.55 141.65,137.92 142.27,139.29 
      142.90,140.63 143.51,142.00 144.12,143.34 144.73,144.68 145.37,146.02 145.98,147.37 146.59,148.71 147.22,150.05 147.83,151.40 148.44,152.71 
      149.08,154.06 149.69,155.38 150.30,156.72 150.93,158.04 151.54,159.36 152.15,160.67 152.79,161.99 153.40,163.31 154.01,164.63 154.62,165.92 
      155.25,167.24 155.86,168.54 156.47,169.85 157.11,171.15 157.72,172.44 158.33,173.74 158.96,175.03 159.58,176.32 160.19,177.62 160.82,178.91 
      161.43,180.18 162.04,181.48 162.68,182.74 163.29,184.01 163.90,185.31 164.51,186.58 165.14,187.85 165.75,189.12 166.36,190.36 167.00,191.63 
      167.61,192.90 168.22,194.15 168.85,195.42 169.46,196.66 170.07,197.91 170.71,199.18 171.32,200.42 171.93,201.67 172.56,202.89 173.17,204.13 
      173.78,205.38 174.39,206.60 175.03,207.84 175.64,209.06 176.25,210.31 176.89,211.53 177.50,212.75 178.11,213.97 178.74,215.19 179.35,216.41 
      179.96,217.61 180.60,218.83 181.21,220.03 181.82,221.25 182.45,222.44 183.06,223.64 183.67,224.86 184.28,226.06 184.92,227.23 185.53,228.42 
      186.14,229.62 186.77,230.82 187.38,231.99 187.99,233.19 188.63,234.36 189.24,235.53 189.85,236.70 190.48,237.90 191.09,239.07 191.71,240.22 
      192.34,241.39 192.95,242.56 193.56,243.71 194.17,244.88 194.81,246.03 195.42,247.20 196.03,248.35 196.66,249.49 197.27,250.64 197.88,251.79 
      198.52,252.94 199.13,254.06 199.74,255.21 200.37,256.33 200.98,257.48 201.59,258.60 202.23,259.72 202.84,260.87 203.45,262.00 204.06,263.12 
      204.69,264.22 205.30,265.34 205.91,266.46 206.55,267.56 207.16,268.68 207.77,269.78 208.40,270.91 209.02,272.01 209.63,273.10 210.26,274.20 
      210.87,275.30 211.48,276.38 212.12,277.47 212.73,278.57 213.34,279.65 213.95,280.75 214.58,281.82 215.19,282.89 215.80,283.97 216.44,285.04 
      217.05,286.12 217.66,287.19 218.29,288.27 218.90,289.32 219.51,290.39 220.15,291.44 220.76,292.51 221.37,293.56 222.00,294.61 222.61,295.66 
      223.22,296.71 223.83,297.76 224.47,298.81 225.08,299.84 225.69,300.89 226.33,301.91 226.94,302.96 227.55,303.99 228.18,305.01 228.79,306.04 
      229.40,307.07 230.04,308.09 230.65,309.12 231.26,310.14 231.89,311.14 232.50,312.17 233.11,313.17 233.72,314.19 234.36,315.20 234.97,316.20 
      235.58,317.20 236.21,318.20 236.82,319.20 237.43,320.18 238.07,321.18 238.68,322.18 239.29,323.15 239.92,324.13 240.53,325.13 241.15,326.11 
      241.78,327.09 242.39,328.06 243.00,329.04 243.61,329.99 244.25,330.97 244.86,331.94 245.47,332.90 246.10,333.87 246.71,334.82 247.32,335.78 
      247.96,336.73 248.57,337.68 249.18,338.63 249.81,339.59 250.42,340.54 251.03,341.47 251.67,342.42 252.28,343.35 252.89,344.27 253.50,345.23 
      254.13,346.15 254.74,347.08 255.35,348.01 255.99,348.94 256.60,349.84 257.21,350.77 257.84,351.70 258.46,352.60 259.07,353.50 259.70,354.43 
      260.31,355.33 260.92,356.24 261.56,357.14 262.17,358.04 262.78,358.95 263.39,359.83 264.02,360.73 264.63,361.61 265.24,362.51 265.88,363.39 
      266.49,364.27 267.10,365.15 267.73,366.03 268.34,366.91 268.95,367.78 269.59,368.66 "/>
    <polyline
      stroke-width="3.000000e+00"
      stroke="#FF0000"
      stroke-opacity="1.000000"
      fill="none"
      points="269.59,368.66 270.20,369.54 270.81,370.40 271.44,371.28 272.05,372.13 272.66,372.99 273.27,373.84 273.91,374.69 274.52,375.55 275.13,376.40 
      275.77,377.26 276.38,378.11 276.99,378.94 277.62,379.80 278.23,380.63 278.84,381.46 279.48,382.29 280.09,383.12 280.70,383.95 281.33,384.78 
      281.94,385.61 282.55,386.44 283.16,387.24 283.80,388.07 284.41,388.88 285.02,389.71 285.65,390.51 286.26,391.32 286.87,392.13 287.51,392.93 
      288.12,393.74 288.73,394.54 289.36,395.32 289.97,396.13 290.59,396.91 291.22,397.72 291.83,398.50 292.44,399.28 293.05,400.06 293.69,400.84 
      294.30,401.62 294.91,402.40 295.54,403.16 296.15,403.94 296.76,404.70 297.40,405.48 298.01,406.24 298.62,406.99 299.25,407.75 299.86,408.51 
      300.47,409.27 301.11,410.02 301.72,410.78 302.33,411.51 302.94,412.27 303.57,413.00 304.18,413.76 304.79,414.49 305.43,415.22 306.04,415.96 
      306.65,416.69 307.28,417.42 307.90,418.15 308.51,418.86 309.14,419.59 309.75,420.30 310.36,421.03 311.00,421.74 311.61,422.45 312.22,423.16 
      312.83,423.87 313.46,424.57 314.07,425.28 314.68,425.99 315.32,426.67 315.93,427.38 316.54,428.06 317.17,428.75 317.78,429.46 318.39,430.14 
      319.03,430.82 319.64,431.51 320.25,432.19 320.88,432.85 321.49,433.53 322.10,434.19 322.71,434.88 323.35,435.54 323.96,436.19 324.57,436.88 
      325.21,437.54 325.82,438.20 326.43,438.83 327.06,439.49 327.67,440.15 328.28,440.78 328.92,441.44 329.53,442.08 330.14,442.74 330.77,443.37 
      331.38,444.01 331.99,444.64 332.60,445.28 333.24,445.91 333.85,446.52 334.46,447.16 335.09,447.77 335.70,448.40 336.31,449.01 336.95,449.62 
      337.56,450.26 338.17,450.87 338.80,451.45 339.41,452.06 340.03,452.67 340.66,453.29 341.27,453.87 341.88,454.48 342.49,455.07 343.13,455.65 
      343.74,456.24 344.35,456.85 344.98,457.44 345.59,458.00 346.20,458.58 346.84,459.17 347.45,459.73 348.06,460.32 348.69,460.88 349.30,461.46 
      349.91,462.03 350.55,462.59 351.16,463.15 351.77,463.71 352.38,464.27 353.01,464.81 353.62,465.37 354.23,465.93 354.87,466.47 355.48,467.01 
      356.09,467.57 356.72,468.11 357.34,468.64 357.95,469.18 358.58,469.72 359.19,470.23 359.80,470.77 360.44,471.30 361.05,471.82 361.66,472.33 
      362.27,472.87 362.90,473.38 363.51,473.89 364.12,474.40 364.76,474.92 365.37,475.43 365.98,475.92 366.61,476.43 367.22,476.92 367.83,477.43 
      368.47,477.92 369.08,478.41 369.69,478.90 370.32,479.41 370.93,479.87 371.54,480.36 372.15,480.85 372.79,481.34 373.40,481.80 374.01,482.29 
      374.65,482.75 375.26,483.22 375.87,483.68 376.50,484.15 377.11,484.61 377.72,485.07 378.36,485.54 378.97,486.00 379.58,486.44 380.21,486.90 
      380.82,487.34 381.43,487.78 382.04,488.25 382.68,488.69 383.29,489.13 383.90,489.57 384.53,490.01 385.14,490.42 385.75,490.86 386.39,491.27 
      387.00,491.71 387.61,492.13 388.24,492.54 388.85,492.96 389.47,493.40 390.10,493.79 390.71,494.20 391.32,494.62 391.93,495.03 392.57,495.43 
      393.18,495.84 393.79,496.23 394.42,496.62 395.03,497.04 395.64,497.43 396.28,497.82 396.89,498.18 397.50,498.57 398.13,498.97 398.74,499.36 
      399.35,499.72 399.99,500.09 400.60,500.48 401.21,500.85 401.82,501.21 402.45,501.58 403.06,501.94 403.67,502.31 404.31,502.68 404.92,503.02 
      405.53,503.38 406.16,503.73 406.78,504.09 407.39,504.43 408.02,504.78 408.63,505.12 409.24,505.46 409.88,505.80 410.49,506.14 411.10,506.46 
      411.71,506.80 412.34,507.12 412.95,507.46 413.56,507.78 414.20,508.10 414.81,508.41 415.42,508.73 416.05,509.05 416.66,509.37 417.27,509.68 
      417.91,509.98 418.52,510.29 419.13,510.59 419.76,510.88 420.37,511.20 420.98,511.49 421.59,511.78 422.23,512.08 422.84,512.37 423.45,512.64 
      424.09,512.93 424.70,513.22 425.31,513.49 425.94,513.76 426.55,514.05 427.16,514.32 "/>
    <polyline
      stroke-width="3.000000e+00"
      stroke="#FF0000"
      stroke-opacity="1.000000"
      fill="none"
      points="427.16,514.32 427.80,514.59 428.41,514.86 429.02,515.13 429.65,515.40 430.26,515.64 430.87,515.91 431.48,516.15 432.12,516.42 432.73,516.67 
      433.34,516.91 433.97,517.15 434.58,517.40 435.19,517.64 435.83,517.89 436.44,518.13 437.05,518.35 437.68,518.59 438.29,518.81 438.90,519.06 
      439.54,519.28 440.15,519.50 440.76,519.72 441.37,519.94 442.01,520.16 442.62,520.38 443.23,520.57 443.86,520.79 444.47,520.99 445.08,521.21 
      445.72,521.40 446.33,521.60 446.94,521.79 447.57,521.99 448.18,522.18 448.79,522.38 449.43,522.57 450.04,522.75 450.65,522.94 451.26,523.11 
      451.89,523.31 452.50,523.48 453.11,523.65 453.75,523.82 454.36,523.99 454.97,524.16 455.60,524.31 456.22,524.48 456.83,524.65 457.46,524.80 
      458.07,524.94 458.68,525.11 459.32,525.26 459.93,525.41 460.54,525.55 461.15,525.70 461.78,525.82 462.39,525.97 463.00,526.11 463.64,526.24 
      464.25,526.38 464.86,526.51 465.49,526.63 466.10,526.75 466.71,526.87 467.35,526.99 467.96,527.12 468.57,527.24 469.20,527.34 469.81,527.46 
      470.42,527.56 471.03,527.65 471.67,527.77 472.28,527.87 472.89,527.97 473.53,528.07 474.14,528.17 474.75,528.24 475.38,528.34 475.99,528.43 
      476.60,528.51 477.24,528.58 477.85,528.68 478.46,528.75 479.09,528.82 479.70,528.90 480.31,528.97 480.92,529.04 481.56,529.09 482.17,529.17 
      482.78,529.22 483.41,529.29 484.02,529.34 484.63,529.39 485.27,529.44 485.88,529.48 486.49,529.53 487.12,529.58 487.73,529.63 488.34,529.68 
      488.98,529.70 489.59,529.75 490.20,529.78 490.81,529.80 491.45,529.83 492.06,529.85 492.67,529.87 493.30,529.90 493.91,529.92 494.52,529.95 
      495.16,529.95 495.77,529.97 496.38,529.97 497.01,529.97 497.62,529.97 498.23,530.00 498.87,530.00 499.48,529.97 500.09,529.97 500.70,529.97 
      501.33,529.97 501.94,529.95 502.55,529.95 503.19,529.92 503.80,529.90 504.41,529.87 505.04,529.85 505.66,529.83 506.27,529.80 506.90,529.78 
      507.51,529.73 508.12,529.70 508.76,529.65 509.37,529.63 509.98,529.58 510.59,529.53 511.22,529.48 511.83,529.44 512.44,529.39 513.08,529.34 
      513.69,529.29 514.30,529.22 514.93,529.17 515.54,529.09 516.15,529.02 516.79,528.95 517.40,528.90 518.01,528.82 518.64,528.75 519.25,528.65 
      519.86,528.58 520.47,528.51 521.11,528.41 521.72,528.34 522.33,528.24 522.97,528.14 523.58,528.04 524.19,527.95 524.82,527.85 525.43,527.75 
      526.04,527.65 526.68,527.56 527.29,527.43 527.90,527.34 528.53,527.21 529.14,527.09 529.75,526.97 530.36,526.87 531.00,526.75 531.61,526.60 
      532.22,526.48 532.85,526.36 533.46,526.21 534.07,526.09 534.71,525.94 535.32,525.82 535.93,525.68 536.56,525.53 537.17,525.38 537.78,525.24 
      538.42,525.09 539.03,524.94 539.64,524.77 540.25,524.63 540.89,524.45 541.50,524.28 542.11,524.14 542.74,523.97 543.35,523.80 543.96,523.62 
      544.60,523.45 545.21,523.28 545.82,523.09 546.45,522.92 547.06,522.72 547.67,522.55 548.31,522.35 548.92,522.16 549.53,521.96 550.14,521.77 
      550.77,521.57 551.38,521.38 551.99,521.18 552.63,520.96 553.24,520.77 553.85,520.55 554.48,520.35 555.10,520.13 555.71,519.91 556.34,519.69 
      556.95,519.47 557.56,519.25 558.20,519.01 558.81,518.79 559.42,518.57 560.03,518.33 560.66,518.08 561.27,517.86 561.88,517.62 562.52,517.37 
      563.13,517.13 563.74,516.89 564.37,516.64 564.98,516.37 565.59,516.13 566.23,515.86 566.84,515.62 567.45,515.35 568.08,515.08 568.69,514.81 
      569.30,514.54 569.91,514.27 570.55,514.00 571.16,513.74 571.77,513.44 572.41,513.17 573.02,512.88 573.63,512.61 574.26,512.32 574.87,512.03 
      575.48,511.73 576.12,511.44 576.73,511.15 577.34,510.86 577.97,510.54 578.58,510.25 579.19,509.93 579.80,509.63 580.44,509.32 581.05,509.00 
      581.66,508.68 582.29,508.37 582.90,508.05 583.51,507.73 584.15,507.41 584.76,507.07 "/>
    <polyline
      stroke-width="3.000000e+00"
      stroke="#FF0000"
      stroke-opacity="1.000000"
      fill="none"
      points="584.76,507.07 585.37,506.75 586.00,506.41 586.61,506.07 587.22,505.75 587.86,505.41 588.47,505.07 589.08,504.73 589.69,504.39 590.33,504.02 
      590.94,503.68 591.55,503.31 592.18,502.97 592.79,502.60 593.40,502.24 594.04,501.90 594.65,501.53 595.26,501.16 595.89,500.80 596.50,500.41 
      597.11,500.04 597.75,499.67 598.36,499.28 598.97,498.89 599.58,498.53 600.21,498.14 600.82,497.74 601.43,497.35 602.07,496.96 602.68,496.57 
      603.29,496.16 603.92,495.77 604.54,495.35 605.15,494.96 605.78,494.55 606.39,494.13 607.00,493.74 607.64,493.33 608.25,492.91 608.86,492.47 
      609.47,492.06 610.10,491.64 610.71,491.20 611.32,490.79 611.96,490.35 612.57,489.91 613.18,489.49 613.81,489.05 614.42,488.61 615.03,488.15 
      615.67,487.71 616.28,487.27 616.89,486.81 617.52,486.37 618.13,485.90 618.74,485.46 619.35,485.00 619.99,484.54 620.60,484.07 621.21,483.61 
      621.85,483.14 622.46,482.66 623.07,482.19 623.70,481.73 624.31,481.24 624.92,480.75 625.56,480.29 626.17,479.80 626.78,479.31 627.41,478.82 
      628.02,478.31 628.63,477.82 629.24,477.33 629.88,476.82 630.49,476.33 631.10,475.82 631.73,475.33 632.34,474.82 632.95,474.31 633.59,473.79 
      634.20,473.28 634.81,472.74 635.44,472.23 636.05,471.72 636.66,471.18 637.30,470.67 637.91,470.13 638.52,469.59 639.13,469.06 639.77,468.52 
      640.38,467.98 640.99,467.45 641.62,466.91 642.23,466.35 642.84,465.81 643.48,465.25 644.09,464.71 644.70,464.15 645.33,463.59 645.94,463.03 
      646.55,462.47 647.19,461.90 647.80,461.34 648.41,460.76 649.02,460.19 649.65,459.61 650.26,459.05 650.87,458.46 651.51,457.88 652.12,457.29 
      652.73,456.70 653.36,456.12 653.98,455.53 654.59,454.95 655.22,454.34 655.83,453.75 656.44,453.14 657.08,452.53 657.69,451.94 658.30,451.33 
      658.91,450.72 659.54,450.11 660.15,449.50 660.76,448.87 661.40,448.26 662.01,447.62 662.62,447.01 663.25,446.38 663.86,445.77 664.47,445.13 
      665.11,444.50 665.72,443.86 666.33,443.23 666.96,442.57 667.57,441.93 668.18,441.30 668.79,440.64 669.43,439.98 670.04,439.34 670.65,438.69 
      671.29,438.03 671.90,437.37 672.51,436.71 673.14,436.05 673.75,435.36 674.36,434.71 675.00,434.05 675.61,433.36 676.22,432.68 676.85,432.00 
      677.46,431.34 678.07,430.65 678.68,429.97 679.32,429.26 679.93,428.58 680.54,427.89 681.17,427.19 681.78,426.50 682.39,425.79 683.03,425.09 
      683.64,424.40 684.25,423.69 684.88,422.99 685.49,422.25 686.10,421.55 686.74,420.84 687.35,420.11 687.96,419.40 688.57,418.67 689.21,417.96 
      689.82,417.22 690.43,416.49 691.06,415.76 691.67,415.03 692.28,414.29 692.92,413.54 693.53,412.81 694.14,412.07 694.77,411.32 695.38,410.56 
      695.99,409.80 696.63,409.07 697.24,408.31 697.85,407.56 698.46,406.78 699.09,406.02 699.70,405.26 700.31,404.48 700.95,403.72 701.56,402.94 
      702.17,402.16 702.80,401.40 703.42,400.62 704.03,399.84 704.66,399.06 705.27,398.25 705.88,397.47 706.52,396.69 707.13,395.89 707.74,395.08 
      708.35,394.30 708.98,393.49 709.59,392.69 710.20,391.88 710.84,391.08 711.45,390.27 712.06,389.47 712.69,388.63 713.30,387.83 713.91,387.00 
      714.55,386.17 715.16,385.36 715.77,384.53 716.40,383.70 717.01,382.87 717.62,382.04 718.23,381.19 718.87,380.36 719.48,379.53 720.09,378.67 
      720.73,377.82 721.34,376.99 721.95,376.13 722.58,375.28 723.19,374.43 723.80,373.57 724.44,372.72 725.05,371.84 725.66,370.98 726.29,370.10 
      726.90,369.25 727.51,368.37 728.12,367.49 728.76,366.61 729.37,365.73 729.98,364.85 "/>
    <polyline
      stroke-width="5.000000e-01"
      stroke="#000000"
      stroke-opacity="1.000000"
      fill="none"
      points="111.99,70.00 730.00,70.00"
      />
    <polyline
      stroke-width="5.000000e-01"
      stroke="#000000"
      stroke-opacity="1.000000"
      fill="none"
      points="111.99,70.00 111.99,80.50"
      />
    <polyline
      stroke-width="5.000000e-01"
      stroke="#000000"
      stroke-opacity="1.000000"
      fill="none"
      points="142.90,70.00 142.90,75.25"
      />
    <polyline
      stroke-width="5.000000e-01"
      stroke="#000000"
      stroke-opacity="1.000000"
      fill="none"
      points="173.78,70.00 173.78,75.25"
      />
    <polyline
      stroke-width="5.000000e-01"
      stroke="#000000"
      stroke-opacity="1.000000"
      fill="none"
      points="204.69,70.00 204.69,75.25"
      />
    <polyline
      stroke-width="5.000000e-01"
      stroke="#000000"
      stroke-opacity="1.000000"
      fill="none"
      points="235.58,70.00 235.58,75.25"
      />
    <polyline
      stroke-width="5.000000e-01"
      stroke="#000000"
      stroke-opacity="1.000000"
      fill="none"
      points="266.49,70.00 266.49,80.50"
      />
    <polyline
      stroke-width="5.000000e-01"
      stroke="#000000"
      stroke-opacity="1.000000"
      fill="none"
      points="297.40,70.00 297.40,75.25"
      />
    <polyline
      stroke-width="5.000000e-01"
      stroke="#000000"
      stroke-opacity="1.000000"
      fill="none"
      points="328.28,70.00 328.28,75.25"
      />
    <polyline
      stroke-width="5.000000e-01"
      stroke="#000000"
      stroke-opacity="1.000000"
      fill="none"
      points="359.19,70.00 359.19,75.25"
      />
    <polyline
      stroke-width="5.000000e-01"
      stroke="#000000"
      stroke-opacity="1.000000"
      fill="none"
      points="390.10,70.00 390.10,75.25"
      />
    <polyline
      stroke-width="5.000000e-01"
      stroke="#000000"
      stroke-opacity="1.000000"
      fill="none"
      points="420.98,70.00 420.98,80.50"
      />
    <polyline
      stroke-width="5.000000e-01"
      stroke="#000000"
      stroke-opacity="1.000000"
      fill="none"
      points="451.89,70.00 451.89,75.25"
      />
    <polyline
      stroke-width="5.000000e-01"
      stroke="#000000"
      stroke-opacity="1.000000"
      fill="none"
      points="482.78,70.00 482.78,75.25"
      />
    <polyline
      stroke-width="5.000000e-01"
      stroke="#000000"
      stroke-opacity="1.000000"
      fill="none"
      points="513.69,70.00 513.69,75.25"
      />
    <polyline
      stroke-width="5.000000e-01"
      stroke="#000000"
      stroke-opacity="1.000000"
      fill="none"
      points="544.60,70.00 544.60,75.25"
      />
    <polyline
      stroke-width="5.000000e-01"
      stroke="#000000"
      stroke-opacity="1.000000"
      fill="none"
      points="575.48,70.00 575.48,80.50"
      />
    <polyline
      stroke-width="5.000000e-01"
      stroke="#000000"
      stroke-opacity="1.000000"
      fill="none"
      points="606.39,70.00 606.39,75.25"
      />
    <polyline
      stroke-width="5.000000e-01"
      stroke="#000000"
      stroke-opacity="1.000000"
      fill="none"
      points="637.30,70.00 637.30,75.25"
      />
    <polyline
      stroke-width="5.000000e-01"
      stroke="#000000"
      stroke-opacity="1.000000"
      fill="none"
      points="668.18,70.00 668.18,75.25"
      />
    <polyline
      stroke-width="5.000000e-01"
      stroke="#000000"
      stroke-opacity="1.000000"
      fill="none"
      points="699.09,70.00 699.09,75.25"
      />
    <polyline
      stroke-width="5.000000e-01"
      stroke="#000000"
      stroke-opacity="1.000000"
      fill="none"
      points="729.98,70.00 729.98,80.50"
      />
    <polyline
      stroke-width="5.000000e-01"
      stroke="#000000"
      stroke-opacity="1.000000"
      fill="none"
      points="730.00,70.00 730.00,530.00"
      />
    <polyline
      stroke-width="5.000000e-01"
      stroke="#000000"
      stroke-opacity="1.000000"
      fill="none"
      points="719.50,70.00 730.00,70.00"
      />
    <polyline
      stroke-width="5.000000e-01"
      stroke="#000000"
      stroke-opacity="1.000000"
      fill="none"
      points="724.75,99.49 730.00,99.49"
      />
    <polyline
      stroke-width="5.000000e-01"
      stroke="#000000"
      stroke-opacity="1.000000"
      fill="none"
      points="724.75,128.96 730.00,128.96"
      />
    <polyline
      stroke-width="5.000000e-01"
      stroke="#000000"
      stroke-opacity="1.000000"
      fill="none"
      points="724.75,158.45 730.00,158.45"
      />
    <polyline
      stroke-width="5.000000e-01"
      stroke="#000000"
      stroke-opacity="1.000000"
      fill="none"
      points="724.75,187.95 730.00,187.95"
      />
    <polyline
      stroke-width="5.000000e-01"
      stroke="#000000"
      stroke-opacity="1.000000"
      fill="none"
      points="719.50,217.44 730.00,217.44"
      />
    <polyline
      stroke-width="5.000000e-01"
      stroke="#000000"
      stroke-opacity="1.000000"
      fill="none"
      points="724.75,246.91 730.00,246.91"
      />
    <polyline
      stroke-width="5.000000e-01"
      stroke="#000000"
      stroke-opacity="1.000000"
      fill="none"
      points="724.75,276.40 730.00,276.40"
      />
    <polyline
      stroke-width="5.000000e-01"
      stroke="#000000"
      stroke-opacity="1.000000"
      fill="none"
      points="724.75,305.89 730.00,305.89"
      />
    <polyline
      stroke-width="5.000000e-01"
      stroke="#000000"
      stroke-opacity="1.000000"
      fill="none"
      points="724.75,335.39 730.00,335.39"
      />
    <polyline
      stroke-width="5.000000e-01"
      stroke="#000000"
      stroke-opacity="1.000000"
      fill="none"
      points="719.50,364.85 730.00,364.85"
      />
    <polyline
      stroke-width="5.000000e-01"
      stroke="#000000"
      stroke-opacity="1.000000"
      fill="none"
      points="724.75,394.35 730.00,394.35"
      />
    <polyline
      stroke-width="5.000000e-01"
      stroke="#000000"
      stroke-opacity="1.000000"
      fill="none"
      points="724.75,423.84 730.00,423.84"
      />
    <polyline
      stroke-width="5.000000e-01"
      stroke="#000000"
      stroke-opacity="1.000000"
      fill="none"
      points="724.75,453.33 730.00,453.33"
      />
    <polyline
      stroke-width="5.000000e-01"
      stroke="#000000"
      stroke-opacity="1.000000"
      fill="none"
      points="724.75,482.80 730.00,482.80"
      />
    <polyline
      stroke-width="5.000000e-01"
      stroke="#000000"
      stroke-opacity="1.000000"
      fill="none"
      points="719.50,512.30 730.00,512.30"
      />
    <polyline
      stroke-width="5.000000e-01"
      stroke="#000000"
      stroke-opacity="1.000000"
      fill="none"
      points="730.00,530.00 111.99,530.00"
      />
    <polyline
      stroke-width="5.000000e-01"
      stroke="#000000"
      stroke-opacity="1.000000"
      fill="none"
      points="729.98,519.50 729.98,530.00"
      />
    <polyline
      stroke-width="5.000000e-01"
      stroke="#000000"
      stroke-opacity="1.000000"
      fill="none"
      points="699.09,524.75 699.09,530.00"
      />
    <polyline
      stroke-width="5.000000e-01"
      stroke="#000000"
      stroke-opacity="1.000000"
      fill="none"
      points="668.18,524.75 668.18,530.00"
      />
    <polyline
      stroke-width="5.000000e-01"
      stroke="#000000"
      stroke-opacity="1.000000"
      fill="none"
      points="637.30,524.75 637.30,530.00"
      />
    <polyline
      stroke-width="5.000000e-01"
      stroke="#000000"
      stroke-opacity="1.000000"
      fill="none"
      points="606.39,524.75 606.39,530.00"
      />
    <polyline
      stroke-width="5.000000e-01"
      stroke="#000000"
      stroke-opacity="1.000000"
      fill="none"
      points="575.48,519.50 575.48,530.00"
      />
    <polyline
      stroke-width="5.000000e-01"
      stroke="#000000"
      stroke-opacity="1.000000"
      fill="none"
      points="544.60,524.75 544.60,530.00"
      />
    <polyline
      stroke-width="5.000000e-01"
      stroke="#000000"
      stroke-opacity="1.000000"
      fill="none"
      points="513.69,524.75 513.69,530.00"
      />
    <polyline
      stroke-width="5.000000e-01"
      stroke="#000000"
      stroke-opacity="1.000000"
      fill="none"
      points="482.78,524.75 482.78,530.00"
      />
    <polyline
      stroke-width="5.000000e-01"
      stroke="#000000"
      stroke-opacity="1.000000"
      fill="none"
      points="451.89,524.75 451.89,530.00"
      />
    <polyline
      stroke-width="5.000000e-01"
      stroke="#000000"
      stroke-opacity="1.000000"
      fill="none"
      points="420.98,519.50 420.98,530.00"
      />
    <polyline
      stroke-width="5.000000e-01"
      stroke="#000000"
      stroke-opacity="1.000000"
      fill="none"
      points="390.10,524.75 390.10,530.00"
      />
    <polyline
      stroke-width="5.000000e-01"
      stroke="#000000"
      stroke-opacity="1.000000"
      fill="none"
      points="359.19,524.75 359.19,530.00"
      />
    <polyline
      stroke-width="5.000000e-01"
      stroke="#000000"
      stroke-opacity="1.000000"
      fill="none"
      points="328.28,524.75 328.28,530.00"
      />
    <polyline
      stroke-width="5.000000e-01"
      stroke="#000000"
      stroke-opacity="1.000000"
      fill="none"
      points="297.40,524.75 297.40,530.00"
      />
    <polyline
      stroke-width="5.000000e-01"
      stroke="#000000"
      stroke-opacity="1.000000"
      fill="none"
      points="266.49,519.50 266.49,530.00"
      />
    <polyline
      stroke-width="5.000000e-01"
      stroke="#000000"
      stroke-opacity="1.000000"
      fill="none"
      points="235.58,524.75 235.58,530.00"
      />
    <polyline
      stroke-width="5.000000e-01"
      stroke="#000000"
      stroke-opacity="1.000000"
      fill="none"
      points="204.69,524.75 204.69,530.00"
      />
    <polyline
      stroke-width="5.000000e-01"
      stroke="#000000"
      stroke-opacity="1.000000"
      fill="none"
      points="173.78,524.75 173.78,530.00"
      />
    <polyline
      stroke-width="5.000000e-01"
      stroke="#000000"
      stroke-opacity="1.000000"
      fill="none"
      points="142.90,524.75 142.90,530.00"
      />
    <polyline
      stroke-width="5.000000e-01"
      stroke="#000000"
      stroke-opacity="1.000000"
      fill="none"
      points="111.99,519.50 111.99,530.00"
      />
    <polyline
      stroke-width="5.000000e-01"
      stroke="#000000"
      stroke-opacity="1.000000"
      fill="none"
      points="111.99,530.00 111.99,70.00"
      />
    <polyline
      stroke-width="5.000000e-01"
      stroke="#000000"
      stroke-opacity="1.000000"
      fill="none"
      points="111.99,512.30 122.49,512.30"
      />
    <polyline
      stroke-width="5.000000e-01"
      stroke="#000000"
      stroke-opacity="1.000000"
      fill="none"
      points="111.99,482.80 117.24,482.80"
      />
    <polyline
      stroke-width="5.000000e-01"
      stroke="#000000"
      stroke-opacity="1.000000"
      fill="none"
      points="111.99,453.33 117.24,453.33"
      />
    <polyline
      stroke-width="5.000000e-01"
      stroke="#000000"
      stroke-opacity="1.000000"
      fill="none"
      points="111.99,423.84 117.24,423.84"
      />
    <polyline
      stroke-width="5.000000e-01"
      stroke="#000000"
      stroke-opacity="1.000000"
      fill="none"
      points="111.99,394.35 117.24,394.35"
      />
    <polyline
      stroke-width="5.000000e-01"
      stroke="#000000"
      stroke-opacity="1.000000"
      fill="none"
      points="111.99,364.85 122.49,364.85"
      />
    <polyline
      stroke-width="5.000000e-01"
      stroke="#000000"
      stroke-opacity="1.000000"
      fill="none"
      points="111.99,335.39 117.24,335.39"
      />
    <polyline
      stroke-width="5.000000e-01"
      stroke="#000000"
      stroke-opacity="1.000000"
      fill="none"
      points="111.99,305.89 117.24,305.89"
      />
    <polyline
      stroke-width="5.000000e-01"
      stroke="#000000"
      stroke-opacity="1.000000"
      fill="none"
      points="111.99,276.40 117.24,276.40"
      />
    <polyline
      stroke-width="5.000000e-01"
      stroke="#000000"
      stroke-opacity="1.000000"
      fill="none"
      points="111.99,246.91 117.24,246.91"
      />
    <polyline
      stroke-width="5.000000e-01"
      stroke="#000000"
      stroke-opacity="1.000000"
      fill="none"
      points="111.99,217.44 122.49,217.44"
      />
    <polyline
      stroke-width="5.000000e-01"
      stroke="#000000"
      stroke-opacity="1.000000"
      fill="none"
      points="111.99,187.95 117.24,187.95"
      />
    <polyline
      stroke-width="5.000000e-01"
      stroke="#000000"
      stroke-opacity="1.000000"
      fill="none"
      points="111.99,158.45 117.24,158.45"
      />
    <polyline
      stroke-width="5.000000e-01"
      stroke="#000000"
      stroke-opacity="1.000000"
      fill="none"
      points="111.99,128.96 117.24,128.96"
      />
    <polyline
      stroke-width="5.000000e-01"
      stroke="#000000"
      stroke-opacity="1.000000"
      fill="none"
      points="111.99,99.49 117.24,99.49"
      />
    <polyline
      stroke-width="5.000000e-01"
      stroke="#000000"
      stroke-opacity="1.000000"
      fill="none"
      points="111.99,70.00 122.49,70.00"
      />
    <clipPath
      id="text-clipping0"
      >
      <polygon
        points="0.000000,0.000000 0.000000,599.993896 800.000000,599.993896 800.000000,0.000000"
        />
    </clipPath>
    <g
      clip-path="url(#text-clipping0)"
      >
      <text
        dominant-baseline="no-change"
        fill="#000000"
        fill-opacity="1.000000"
        xml:space="preserve"
        font-size="18"
        transform="matrix(1.000000 0.000000 0.000000 -1.000000 112.015137 49.000519)"
        text-anchor="middle"
        x="0.000000"
        y="7.112871"
><tspan font-family="sans-serif" font-style="normal" font-weight="normal">&#x30;&#x2e;&#x30;</tspan></text>
    </g>
    <g
      clip-path="url(#text-clipping0)"
      >
      <text
        dominant-baseline="no-change"
        fill="#000000"
        fill-opacity="1.000000"
        xml:space="preserve"
        font-size="18"
        transform="matrix(1.000000 0.000000 0.000000 -1.000000 266.512040 49.000519)"
        text-anchor="middle"
        x="0.000000"
        y="7.112871"
><tspan font-family="sans-serif" font-style="normal" font-weight="normal">&#x30;&#x2e;&#x35;</tspan></text>
    </g>
    <g
      clip-path="url(#text-clipping0)"
      >
      <text
        dominant-baseline="no-change"
        fill="#000000"
        fill-opacity="1.000000"
        xml:space="preserve"
        font-size="18"
        transform="matrix(1.000000 0.000000 0.000000 -1.000000 421.008942 49.000519)"
        text-anchor="middle"
        x="0.000000"
        y="7.112871"
><tspan font-family="sans-serif" font-style="normal" font-weight="normal">&#x31;&#x2e;&#x30;</tspan></text>
    </g>
    <g
      clip-path="url(#text-clipping0)"
      >
      <text
        dominant-baseline="no-change"
        fill="#000000"
        fill-opacity="1.000000"
        xml:space="preserve"
        font-size="18"
        transform="matrix(1.000000 0.000000 0.000000 -1.000000 575.505844 49.000519)"
        text-anchor="middle"
        x="0.000000"
        y="7.112871"
><tspan font-family="sans-serif" font-style="normal" font-weight="normal">&#x31;&#x2e;&#x35;</tspan></text>
    </g>
    <g
      clip-path="url(#text-clipping0)"
      >
      <text
        dominant-baseline="no-change"
        fill="#000000"
        fill-opacity="1.000000"
        xml:space="preserve"
        font-size="18"
        transform="matrix(1.000000 0.000000 0.000000 -1.000000 730.002747 49.000519)"
        text-anchor="middle"
        x="0.000000"
        y="7.112871"
><tspan font-family="sans-serif" font-style="normal" font-weight="normal">&#x32;&#x2e;&#x30;</tspan></text>
    </g>
    <g
      clip-path="url(#text-clipping0)"
      >
      <text
        dominant-baseline="no-change"
        fill="#000000"
        fill-opacity="1.000000"
        xml:space="preserve"
        font-size="18"
        transform="matrix(1.000000 0.000000 0.000000 -1.000000 105.008087 69.997253)"
        text-anchor="end"
        x="0.000000"
        y="7.112871"
><tspan font-family="sans-serif" font-style="normal" font-weight="normal">&#x30;&#x2e;&#x30;</tspan></text>
    </g>
    <g
      clip-path="url(#text-clipping0)"
      >
      <text
        dominant-baseline="no-change"
        fill="#000000"
        fill-opacity="1.000000"
        xml:space="preserve"
        font-size="18"
        transform="matrix(1.000000 0.000000 0.000000 -1.000000 105.008087 217.438276)"
        text-anchor="end"
        x="0.000000"
        y="7.112871"
><tspan font-family="sans-serif" font-style="normal" font-weight="normal">&#x30;&#x2e;&#x35;</tspan></text>
    </g>
    <g
      clip-path="url(#text-clipping0)"
      >
      <text
        dominant-baseline="no-change"
        fill="#000000"
        fill-opacity="1.000000"
        xml:space="preserve"
        font-size="18"
        transform="matrix(1.000000 0.000000 0.000000 -1.000000 105.008087 364.879299)"
        text-anchor="end"
        x="0.000000"
        y="7.112871"
><tspan font-family="sans-serif" font-style="normal" font-weight="normal">&#x31;&#x2e;&#x30;</tspan></text>
    </g>
    <g
      clip-path="url(#text-clipping0)"
      >
      <text
        dominant-baseline="no-change"
        fill="#000000"
        fill-opacity="1.000000"
        xml:space="preserve"
        font-size="18"
        transform="matrix(1.000000 0.000000 0.000000 -1.000000 105.008087 512.295907)"
        text-anchor="end"
        x="0.000000"
        y="7.112871"
><tspan font-family="sans-serif" font-style="normal" font-weight="normal">&#x31;&#x2e;&#x35;</tspan></text>
    </g>
    <g
      clip-path="url(#text-clipping0)"
      >
      <text
        dominant-baseline="no-change"
        fill="#000000"
        fill-opacity="1.000000"
        xml:space="preserve"
        font-size="18"
        transform="matrix(1.000000 0.000000 0.000000 -1.000000 421.008942 25.196081)"
        text-anchor="middle"
        x="0.000000"
        y="7.112871"
><tspan font-family="sans-serif" font-style="normal" font-weight="normal">&#x78;</tspan></text>
    </g>
    <g
      clip-path="url(#text-clipping0)"
      >
      <text
        dominant-baseline="no-change"
        fill="#000000"
        fill-opacity="1.000000"
        xml:space="preserve"
        font-size="18"
        transform="matrix(0.000000 1.000000 1.000000 -0.000000 41.993469 300.009156)"
        text-anchor="middle"
        x="0.000000"
        y="7.112871"
><tspan font-family="sans-serif" font-style="normal" font-weight="normal">&#x54;</tspan></text>
    </g>
  </g>
</svg>
